<svg width="16" height="16" viewBox="0 0 16 16" fill="none" xmlns="http://www.w3.org/2000/svg">
<path d="M0.917117 15.9361C0.373192 16.1932 -0.193183 15.6268 0.0638596 15.0829L4.50372 5.68768C4.69319 5.28676 5.22277 5.19478 5.53633 5.50834L10.4916 10.4637C10.8052 10.7772 10.7132 11.3068 10.3123 11.4963L0.917117 15.9361Z" fill="black"/>
<path d="M15.0829 0.0638596C15.6268 -0.193183 16.1932 0.373194 15.9361 0.91712L11.4963 10.3123C11.3068 10.7132 10.7772 10.8052 10.4637 10.4917L5.50836 5.53634C5.19481 5.22279 5.28679 4.6932 5.68771 4.50373L15.0829 0.0638596Z" fill="#597E52"/>
<path d="M9.29327 9.43926C8.57901 10.1535 7.42097 10.1535 6.70671 9.43926C5.99244 8.725 5.99244 7.56695 6.70671 6.85269C7.42097 6.13843 8.57901 6.13843 9.29327 6.85269C10.0075 7.56695 10.0075 8.725 9.29327 9.43926Z" fill="white"/>
</svg>
