<svg width="126" height="126" viewBox="0 0 126 126" fill="none" xmlns="http://www.w3.org/2000/svg">
<path d="M7.74061 124.916C3.49701 126.921 -0.921722 122.502 1.08367 118.259L35.7226 44.9596C37.2007 41.8317 41.3325 41.1141 43.7788 43.5604L82.4391 82.2207C84.8854 84.667 84.1678 88.7987 81.0399 90.2769L7.74061 124.916Z" fill="black"/>
<path d="M118.259 1.08373C122.503 -0.921662 126.921 3.49709 124.916 7.74068L90.2771 81.0399C88.7989 84.1678 84.6672 84.8855 82.2209 82.4392L43.5606 43.7788C41.1143 41.3325 41.8319 37.2008 44.9598 35.7227L118.259 1.08373Z" fill="#EEE50F"/>
<path d="M73.0897 74.2286C67.5172 79.8011 58.4823 79.8011 52.9098 74.2286C47.3373 68.656 47.3373 59.6212 52.9098 54.0487C58.4823 48.4762 67.5172 48.4762 73.0897 54.0487C78.6622 59.6212 78.6622 68.656 73.0897 74.2286Z" fill="white"/>
</svg>
