<svg width="518" height="126" viewBox="0 0 518 126" fill="none" xmlns="http://www.w3.org/2000/svg">
<path d="M143.203 95.5312C142.391 95.3438 141.484 95.125 140.484 94.875C139.516 94.625 138.641 94.375 137.859 94.125C137.797 94.125 137.641 94.0312 137.391 93.8438C137.172 93.6562 137.062 93.5312 137.062 93.4688C136.312 93.0938 135.609 92.7969 134.953 92.5781C134.328 92.3594 133.766 92.1094 133.266 91.8281C132.797 91.5156 132.422 91.0938 132.141 90.5625C131.891 90.0312 131.766 89.25 131.766 88.2188V87.9844C131.766 87.9219 131.859 87.7188 132.047 87.375C132.234 87.0312 132.328 86.8281 132.328 86.7656C132.484 86.1094 132.547 85.4062 132.516 84.6562C132.516 83.875 132.562 83.1094 132.656 82.3594C132.656 82.3281 132.703 82.2031 132.797 81.9844C132.922 81.7344 132.984 81.5781 132.984 81.5156C132.984 81.4844 132.984 81.3906 132.984 81.2344C133.016 81.0781 133.047 80.9062 133.078 80.7188C133.109 80.5312 133.141 80.3594 133.172 80.2031C133.203 80.0156 133.234 79.875 133.266 79.7812C133.266 79.7188 133.266 79.5781 133.266 79.3594C133.297 79.1094 133.328 78.8594 133.359 78.6094C133.391 78.3594 133.422 78.125 133.453 77.9062C133.484 77.6562 133.5 77.5 133.5 77.4375C133.5 77.4062 133.516 77.2969 133.547 77.1094C133.578 76.9219 133.609 76.7344 133.641 76.5469C133.703 76.3594 133.75 76.1875 133.781 76.0312C133.812 75.8438 133.828 75.7344 133.828 75.7031C133.828 75.6406 133.844 75.5 133.875 75.2812C133.906 75.0625 133.938 74.8281 133.969 74.5781C134 74.2969 134.031 74.0469 134.062 73.8281C134.094 73.5781 134.125 73.4062 134.156 73.3125C134.156 73.2188 134.172 73.0781 134.203 72.8906C134.266 72.6719 134.328 72.4688 134.391 72.2812C134.484 72.0938 134.578 71.9219 134.672 71.7656C134.797 71.6094 134.938 71.5312 135.094 71.5312C135.344 71.5312 135.562 71.7656 135.75 72.2344C135.938 72.7031 136.094 73.2656 136.219 73.9219C136.375 74.5469 136.5 75.1719 136.594 75.7969C136.688 76.4219 136.766 76.875 136.828 77.1562C136.859 77.3438 136.891 77.6875 136.922 78.1875C136.984 78.6875 137.031 79.2188 137.062 79.7812C137.125 80.3438 137.172 80.875 137.203 81.375C137.266 81.8438 137.297 82.1719 137.297 82.3594C137.359 82.4219 137.422 82.5156 137.484 82.6406C137.578 82.7656 137.625 82.8594 137.625 82.9219C137.875 83.4531 138.062 83.9531 138.188 84.4219C138.312 84.8906 138.516 85.3906 138.797 85.9219C138.828 86.0156 138.891 86.1719 138.984 86.3906C139.109 86.5781 139.234 86.7812 139.359 87C139.484 87.1875 139.594 87.375 139.688 87.5625C139.812 87.75 139.906 87.8906 139.969 87.9844C140.031 88.0156 140.141 88.1094 140.297 88.2656C140.453 88.4219 140.531 88.5312 140.531 88.5938C140.562 88.625 140.609 88.7344 140.672 88.9219C140.766 89.0781 140.859 89.2656 140.953 89.4844C141.047 89.6719 141.141 89.8594 141.234 90.0469C141.328 90.2031 141.375 90.2969 141.375 90.3281C141.656 90.7344 142.031 91.0938 142.5 91.4062C142.969 91.7188 143.469 92 144 92.25C144.531 92.4688 145.062 92.6875 145.594 92.9062C146.125 93.0938 146.609 93.2812 147.047 93.4688C147.109 93.5312 147.234 93.6562 147.422 93.8438C147.641 94.0312 147.781 94.125 147.844 94.125H148.312H149.578C149.703 94.125 150 94.1719 150.469 94.2656C150.969 94.3281 151.281 94.3594 151.406 94.3594H152.719C153.875 94.3594 154.891 94.2188 155.766 93.9375C156.672 93.6562 157.625 93.3125 158.625 92.9062C158.844 92.8438 159.141 92.7812 159.516 92.7188C159.922 92.625 160.234 92.4844 160.453 92.2969C160.516 92.2656 160.656 92.1562 160.875 91.9688C161.094 91.75 161.328 91.5156 161.578 91.2656C161.828 91.0156 162.062 90.7656 162.281 90.5156C162.531 90.2656 162.703 90.0938 162.797 90C162.922 89.875 163.094 89.6875 163.312 89.4375C163.531 89.1875 163.75 88.9375 163.969 88.6875C164.188 88.4375 164.375 88.2188 164.531 88.0312C164.719 87.8125 164.828 87.6875 164.859 87.6562C164.891 87.625 164.922 87.5312 164.953 87.375C165.016 87.1875 165.078 87 165.141 86.8125C165.203 86.5938 165.25 86.4062 165.281 86.25C165.344 86.0625 165.391 85.9531 165.422 85.9219C165.578 85.5156 165.719 85.2031 165.844 84.9844C166 84.7344 166.125 84.5 166.219 84.2812C166.344 84.0312 166.438 83.7656 166.5 83.4844C166.562 83.2031 166.594 82.8281 166.594 82.3594C166.594 81.3594 166.562 80.3906 166.5 79.4531C166.469 78.5156 166.422 77.5469 166.359 76.5469C166.234 75.9219 165.984 75.3906 165.609 74.9531C165.234 74.5156 164.875 74.0781 164.531 73.6406C164.5 73.5781 164.375 73.4219 164.156 73.1719C163.969 72.9219 163.75 72.6406 163.5 72.3281C163.281 72.0156 163.062 71.7344 162.844 71.4844C162.656 71.2031 162.547 71.0312 162.516 70.9688C162.297 70.6875 162.094 70.5 161.906 70.4062C161.75 70.2812 161.578 70.1875 161.391 70.125C161.234 70.0625 161.047 70 160.828 69.9375C160.641 69.875 160.406 69.75 160.125 69.5625C159.812 69.3125 159.5 69 159.188 68.625C158.906 68.25 158.562 67.9844 158.156 67.8281C158.094 67.7969 157.969 67.7656 157.781 67.7344C157.625 67.7031 157.438 67.6719 157.219 67.6406C157.031 67.6094 156.844 67.5781 156.656 67.5469C156.5 67.5156 156.406 67.5 156.375 67.5C156.219 67.4375 155.953 67.3438 155.578 67.2188C155.234 67.0938 155.016 67 154.922 66.9375C154.859 66.875 154.672 66.75 154.359 66.5625C154.078 66.375 153.766 66.1875 153.422 66C153.109 65.7812 152.797 65.5938 152.484 65.4375C152.203 65.25 152.016 65.1406 151.922 65.1094C151.109 64.7656 150.188 64.5156 149.156 64.3594C148.156 64.2031 147.25 63.9688 146.438 63.6562C145.625 63.4062 144.844 63.0625 144.094 62.625C143.375 62.1875 142.688 61.7344 142.031 61.2656C141.281 60.8281 140.547 60.3594 139.828 59.8594C139.141 59.3594 138.406 58.8906 137.625 58.4531C137.625 58.3906 137.578 58.3281 137.484 58.2656C137.422 58.1719 137.359 58.125 137.297 58.125C135.859 55.9375 134.672 53.7031 133.734 51.4219C132.797 49.1094 132.328 46.5938 132.328 43.875V42.9844C132.328 42.6719 132.344 42.375 132.375 42.0938C132.406 41.7812 132.5 41.4531 132.656 41.1094C132.688 41.0781 132.734 40.9844 132.797 40.8281C132.891 40.6406 132.984 40.4531 133.078 40.2656C133.172 40.0469 133.266 39.8594 133.359 39.7031C133.453 39.5156 133.5 39.4062 133.5 39.375C133.5 39.3438 133.516 39.25 133.547 39.0938C133.578 38.9062 133.609 38.7188 133.641 38.5312C133.672 38.3125 133.703 38.125 133.734 37.9688C133.766 37.7812 133.797 37.6719 133.828 37.6406C133.891 37.4844 133.969 37.2812 134.062 37.0312C134.156 36.7812 134.266 36.5156 134.391 36.2344C134.516 35.9531 134.656 35.6875 134.812 35.4375C134.969 35.1562 135.141 34.9219 135.328 34.7344C135.359 34.6719 135.469 34.5469 135.656 34.3594C135.875 34.1406 136.094 33.9219 136.312 33.7031C136.562 33.4531 136.781 33.2344 136.969 33.0469C137.156 32.8594 137.266 32.7344 137.297 32.6719C137.359 32.6719 137.422 32.6094 137.484 32.4844C137.578 32.3281 137.625 32.1875 137.625 32.0625C138 31.1875 138.5 30.5156 139.125 30.0469C139.75 29.5469 140.5 29.0312 141.375 28.5C141.438 28.5625 141.516 28.5938 141.609 28.5938C141.672 28.5938 141.703 28.5625 141.703 28.5C141.734 28.5 141.797 28.4687 141.891 28.4062C142.016 28.3125 142.141 28.2188 142.266 28.125C142.422 28 142.562 27.9062 142.688 27.8438C142.812 27.75 142.875 27.7031 142.875 27.7031H143.109H143.766C143.828 27.7031 144.031 27.6562 144.375 27.5625C144.719 27.4688 145.078 27.375 145.453 27.2812C145.859 27.1562 146.234 27.0625 146.578 27C146.953 26.9062 147.188 26.8594 147.281 26.8594H147.938H149.578C149.672 26.8281 149.891 26.7969 150.234 26.7656C150.578 26.7344 150.938 26.7031 151.312 26.6719C151.719 26.6406 152.094 26.6094 152.438 26.5781C152.812 26.5469 153.047 26.5312 153.141 26.5312H153.375H153.422C153.484 26.5312 153.578 26.5937 153.703 26.7188C153.828 26.8125 153.922 26.8594 153.984 26.8594H155.25H155.812C156.219 26.8906 156.703 27.0469 157.266 27.3281C157.859 27.5781 158.453 27.875 159.047 28.2188C159.641 28.5313 160.219 28.8594 160.781 29.2031C161.344 29.5469 161.812 29.8125 162.188 30C162.25 30.0625 162.391 30.1406 162.609 30.2344C162.859 30.2969 163 30.3281 163.031 30.3281C163.312 30.4844 163.578 30.7031 163.828 30.9844C164.078 31.2344 164.328 31.4844 164.578 31.7344C164.859 31.9844 165.141 32.2031 165.422 32.3906C165.734 32.5781 166.078 32.6719 166.453 32.6719C166.891 32.6719 167.203 32.5312 167.391 32.25C167.609 31.9688 167.766 31.6406 167.859 31.2656C167.984 30.8906 168.078 30.5156 168.141 30.1406C168.203 29.7344 168.297 29.4062 168.422 29.1562C168.422 29.0625 168.484 28.9375 168.609 28.7812C168.734 28.625 168.875 28.4531 169.031 28.2656C169.188 28.0781 169.328 27.9062 169.453 27.75C169.609 27.5938 169.703 27.4844 169.734 27.4219C169.797 27.3594 169.875 27.3281 169.969 27.3281H170.062C170.5 27.3281 170.797 27.5469 170.953 27.9844C171.141 28.4219 171.234 28.8125 171.234 29.1562V29.6719C171.234 29.7656 171.203 29.9375 171.141 30.1875C171.109 30.4063 171.062 30.6562 171 30.9375C170.938 31.1875 170.875 31.4375 170.812 31.6875C170.75 31.9063 170.703 32.0312 170.672 32.0625C170.203 35.5938 169.969 39.1875 169.969 42.8438C169.969 43.4062 169.984 43.9688 170.016 44.5312C170.047 45.0625 170.062 45.6094 170.062 46.1719C170 46.3594 169.922 46.5938 169.828 46.875C169.766 47.125 169.656 47.375 169.5 47.625C169.375 47.875 169.219 48.0938 169.031 48.2812C168.844 48.4375 168.641 48.5156 168.422 48.5156C168.047 48.5156 167.75 48.4375 167.531 48.2812C167.344 48.125 167.188 47.9375 167.062 47.7188C166.969 47.4688 166.891 47.2188 166.828 46.9688C166.766 46.6875 166.688 46.4219 166.594 46.1719C166.25 45.1719 165.906 44.0625 165.562 42.8438C165.219 41.625 164.875 40.5469 164.531 39.6094C164.375 39.2344 164.109 38.7969 163.734 38.2969C163.391 37.7969 162.984 37.2969 162.516 36.7969C162.078 36.2656 161.641 35.7812 161.203 35.3438C160.766 34.875 160.406 34.4688 160.125 34.125C159.812 33.7188 159.516 33.25 159.234 32.7188C158.953 32.1562 158.594 31.75 158.156 31.5C157.812 31.3125 157.406 31.125 156.938 30.9375C156.469 30.7187 155.984 30.5156 155.484 30.3281C154.984 30.1406 154.484 29.9844 153.984 29.8594C153.516 29.7344 153.094 29.6719 152.719 29.6719C151.938 29.6719 151.172 29.8281 150.422 30.1406C149.672 30.4219 148.891 30.6719 148.078 30.8906C148.047 30.8906 147.953 30.9062 147.797 30.9375C147.672 30.9688 147.516 31 147.328 31.0312C147.141 31.0625 146.969 31.0937 146.812 31.125C146.656 31.1563 146.531 31.1719 146.438 31.1719H145.266C145.234 31.2031 145.156 31.2656 145.031 31.3594C144.906 31.4531 144.75 31.5625 144.562 31.6875C144.406 31.8125 144.25 31.9375 144.094 32.0625C143.938 32.1875 143.828 32.2969 143.766 32.3906C142.922 33.1406 142.234 33.8438 141.703 34.5C141.172 35.1562 140.75 35.8438 140.438 36.5625C140.156 37.25 139.953 38.0156 139.828 38.8594C139.703 39.7031 139.641 40.6875 139.641 41.8125C139.641 42.0625 139.656 42.4062 139.688 42.8438C139.719 43.2812 139.766 43.75 139.828 44.25C139.891 44.7188 139.969 45.1562 140.062 45.5625C140.188 45.9688 140.344 46.2656 140.531 46.4531L144.375 50.1562C144.469 50.2188 144.594 50.2969 144.75 50.3906C144.906 50.4844 145.078 50.5781 145.266 50.6719C145.453 50.7656 145.625 50.8438 145.781 50.9062C145.938 50.9688 146.047 51.0156 146.109 51.0469C146.141 51.0781 146.234 51.1562 146.391 51.2812C146.578 51.4062 146.766 51.5312 146.953 51.6562C147.172 51.7812 147.359 51.9062 147.516 52.0312C147.703 52.125 147.812 52.1875 147.844 52.2188C148.469 52.625 149.141 52.9531 149.859 53.2031C150.578 53.4219 151.266 53.7031 151.922 54.0469C152.016 54.0781 152.188 54.1562 152.438 54.2812C152.719 54.375 153 54.4844 153.281 54.6094C153.562 54.7344 153.828 54.8594 154.078 54.9844C154.359 55.0781 154.547 55.1562 154.641 55.2188C154.672 55.2188 154.797 55.2812 155.016 55.4062C155.234 55.5312 155.469 55.6719 155.719 55.8281C156 55.9531 156.25 56.0781 156.469 56.2031C156.719 56.2969 156.891 56.3594 156.984 56.3906C157.016 56.3906 157.125 56.4062 157.312 56.4375C157.5 56.4375 157.703 56.4531 157.922 56.4844C158.141 56.5156 158.344 56.5625 158.531 56.625C158.75 56.6562 158.891 56.6875 158.953 56.7188C159.016 56.7188 159.156 56.7969 159.375 56.9531C159.625 57.1094 159.766 57.2031 159.797 57.2344C159.922 57.2969 160.125 57.4062 160.406 57.5625C160.719 57.6875 161.031 57.8281 161.344 57.9844C161.656 58.1406 161.953 58.2969 162.234 58.4531C162.516 58.5781 162.703 58.6719 162.797 58.7344C164.391 59.4844 165.859 60.5 167.203 61.7812C168.578 63.0625 169.75 64.5156 170.719 66.1406C171.719 67.7656 172.5 69.4844 173.062 71.2969C173.625 73.0781 173.906 74.8594 173.906 76.6406V77.1562C173.875 77.4688 173.828 77.9062 173.766 78.4688C173.734 79 173.688 79.5469 173.625 80.1094C173.562 80.6719 173.5 81.1719 173.438 81.6094C173.375 82.0469 173.328 82.2969 173.297 82.3594C173.172 83.0469 172.984 83.6875 172.734 84.2812C172.484 84.8438 172.172 85.3906 171.797 85.9219C171.453 86.4531 171.078 86.9844 170.672 87.5156C170.297 88.0469 169.906 88.5938 169.5 89.1562C169.5 89.1875 169.469 89.2656 169.406 89.3906C169.344 89.4844 169.281 89.5938 169.219 89.7188C169.156 89.8438 169.078 89.9688 168.984 90.0938C168.922 90.2188 168.891 90.2969 168.891 90.3281C168.672 90.7344 168.312 91.0469 167.812 91.2656C167.344 91.4844 166.938 91.7188 166.594 91.9688C166.562 92.0312 166.469 92.1406 166.312 92.2969C166.188 92.4531 166.047 92.625 165.891 92.8125C165.734 92.9688 165.578 93.125 165.422 93.2812C165.297 93.4062 165.219 93.4688 165.188 93.4688C164.625 93.8438 164.078 94.1406 163.547 94.3594C163.016 94.5781 162.469 94.7656 161.906 94.9219C161.344 95.0781 160.766 95.2344 160.172 95.3906C159.609 95.5156 159 95.6719 158.344 95.8594C157.719 96.0469 157.156 96.2344 156.656 96.4219C156.188 96.6094 155.609 96.7031 154.922 96.7031H153.984C153.578 96.6719 152.859 96.5938 151.828 96.4688C150.797 96.375 149.703 96.2656 148.547 96.1406C147.422 96.0156 146.344 95.9062 145.312 95.8125C144.312 95.6875 143.609 95.5938 143.203 95.5312ZM215.475 95.0625C214.694 94.625 213.881 94.25 213.037 93.9375C212.225 93.625 211.412 93.2031 210.6 92.6719C210.537 92.6719 210.428 92.625 210.272 92.5312C210.116 92.4062 209.959 92.2812 209.803 92.1562C209.647 92.0312 209.491 91.9062 209.334 91.7812C209.209 91.6562 209.131 91.5625 209.1 91.5C208.694 91.25 208.287 91.0312 207.881 90.8438C207.475 90.6562 207.1 90.4375 206.756 90.1875L203.756 87.1875C203.694 87.125 203.537 87.0156 203.287 86.8594C203.069 86.7031 202.944 86.625 202.912 86.625C202.912 86.4062 202.803 86.2969 202.584 86.2969C202.147 85.6719 201.662 85.0625 201.131 84.4688C200.631 83.8438 200.162 83.1719 199.725 82.4531C199.694 82.4531 199.6 82.2969 199.444 81.9844C199.319 81.6719 199.241 81.4375 199.209 81.2812C197.741 78.4062 196.444 75.4844 195.319 72.5156C195.287 72.4844 195.178 72.2969 194.991 71.9531C194.803 71.6094 194.709 71.4062 194.709 71.3438V69.5625C194.616 68.5625 194.491 67.6094 194.334 66.7031C194.209 65.7656 194.147 64.7969 194.147 63.7969V62.2969C194.178 61.9844 194.209 61.4375 194.241 60.6562C194.303 59.8438 194.366 58.9844 194.428 58.0781C194.491 57.1719 194.537 56.3281 194.569 55.5469C194.631 54.7344 194.678 54.1562 194.709 53.8125C194.772 52.9375 194.959 52.125 195.272 51.375C195.616 50.625 195.928 49.8594 196.209 49.0781C196.209 49.0469 196.225 48.9688 196.256 48.8438C196.287 48.7188 196.319 48.5781 196.35 48.4219C196.381 48.2344 196.412 48.0781 196.444 47.9531C196.475 47.7969 196.491 47.6875 196.491 47.625C196.522 47.5625 196.569 47.4219 196.631 47.2031C196.725 46.9531 196.819 46.7031 196.912 46.4531C197.037 46.2031 197.131 45.9688 197.194 45.75C197.287 45.5 197.35 45.3438 197.381 45.2812C197.381 45.25 197.397 45.1719 197.428 45.0469C197.459 44.8906 197.491 44.7344 197.522 44.5781C197.553 44.3906 197.584 44.2344 197.616 44.1094C197.647 43.9531 197.678 43.8438 197.709 43.7812C197.709 43.75 197.772 43.6719 197.897 43.5469C198.053 43.4219 198.209 43.2812 198.366 43.125C198.553 42.9375 198.725 42.7812 198.881 42.6562C199.037 42.5 199.147 42.4062 199.209 42.375C199.928 41.5 200.616 40.6094 201.272 39.7031C201.959 38.7969 202.709 37.9219 203.522 37.0781C205.022 35.4531 206.569 33.9688 208.162 32.625C209.756 31.2812 211.616 30.25 213.741 29.5312C213.959 29.4375 214.209 29.3125 214.491 29.1562C214.803 29 215.116 28.8437 215.428 28.6875C215.741 28.5313 216.053 28.3906 216.366 28.2656C216.709 28.1406 217.022 28.0625 217.303 28.0312H218.475C218.537 28.0312 218.709 28 218.991 27.9375C219.272 27.8438 219.491 27.7656 219.647 27.7031C219.772 27.6719 219.991 27.6094 220.303 27.5156C220.647 27.3906 221.006 27.2656 221.381 27.1406C221.756 27.0156 222.116 26.9062 222.459 26.8125C222.803 26.6875 223.053 26.5937 223.209 26.5312H228.975C229.912 26.5312 230.678 26.5469 231.272 26.5781C231.866 26.6094 232.35 26.6406 232.725 26.6719C233.1 26.7031 233.381 26.7344 233.569 26.7656C233.756 26.7969 233.897 26.8281 233.991 26.8594C234.147 26.8906 234.553 27 235.209 27.1875C235.866 27.3437 236.569 27.5312 237.319 27.75C238.069 27.9375 238.772 28.125 239.428 28.3125C240.084 28.4687 240.506 28.5625 240.694 28.5938C240.819 28.5938 241.084 28.6406 241.491 28.7344C241.897 28.7969 242.131 28.8594 242.194 28.9219C242.225 28.9219 242.319 28.9844 242.475 29.1094C242.662 29.2344 242.85 29.375 243.037 29.5312C243.225 29.6563 243.397 29.7812 243.553 29.9062C243.741 30 243.866 30.0625 243.928 30.0938C243.991 30.0938 244.178 30.1406 244.491 30.2344C244.834 30.3281 245.037 30.3906 245.1 30.4219C245.35 30.6094 245.584 30.8438 245.803 31.125C246.022 31.375 246.241 31.625 246.459 31.875C246.709 32.125 246.959 32.3438 247.209 32.5312C247.491 32.6875 247.819 32.7656 248.194 32.7656C248.569 32.7656 248.881 32.5 249.131 31.9688C249.412 31.4375 249.678 30.8594 249.928 30.2344C250.178 29.6094 250.444 29.0312 250.725 28.5C251.006 27.9688 251.366 27.7031 251.803 27.7031C252.116 27.7031 252.366 27.875 252.553 28.2188C252.772 28.5313 252.928 28.9063 253.022 29.3438C253.147 29.7812 253.225 30.2188 253.256 30.6562C253.287 31.0937 253.303 31.4062 253.303 31.5938C253.303 31.875 253.287 32.1094 253.256 32.2969C253.225 32.4531 253.131 32.6562 252.975 32.9062V46.4531C252.975 47.0781 252.85 47.6562 252.6 48.1875C252.381 48.6875 251.928 48.9844 251.241 49.0781C251.084 49.1094 250.928 49.0625 250.772 48.9375C250.616 48.8125 250.475 48.6719 250.35 48.5156C250.225 48.3281 250.1 48.1562 249.975 48C249.881 47.8125 249.803 47.6875 249.741 47.625C249.741 47.5625 249.6 47.4219 249.319 47.2031C249.069 46.9531 248.928 46.7812 248.897 46.6875C248.803 46.5625 248.647 46.3594 248.428 46.0781C248.241 45.7969 248.037 45.5156 247.819 45.2344C247.631 44.9219 247.444 44.625 247.256 44.3438C247.069 44.0625 246.959 43.875 246.928 43.7812C246.522 43.1875 246.225 42.5312 246.037 41.8125C245.881 41.0625 245.569 40.375 245.1 39.75C244.569 39.0312 244.037 38.4375 243.506 37.9688C243.006 37.5 242.459 37 241.866 36.4688C241.178 35.875 240.584 35.3438 240.084 34.875C239.584 34.375 239.084 33.9375 238.584 33.5625C238.084 33.1875 237.522 32.8594 236.897 32.5781C236.303 32.2656 235.553 31.9844 234.647 31.7344C233.459 31.4531 232.225 31.1875 230.944 30.9375C229.694 30.6875 228.475 30.5625 227.287 30.5625C226.662 30.5625 226.053 30.6719 225.459 30.8906C224.897 31.1094 224.334 31.3906 223.772 31.7344C223.209 32.0469 222.647 32.4062 222.084 32.8125C221.553 33.1875 221.037 33.5312 220.537 33.8438C220.1 34.125 219.647 34.3125 219.178 34.4062C218.709 34.5 218.272 34.7188 217.866 35.0625C217.022 35.7812 216.241 36.5781 215.522 37.4531C214.834 38.3281 214.037 39.0938 213.131 39.75C213.069 39.8125 212.975 39.9219 212.85 40.0781C212.725 40.2031 212.631 40.2812 212.569 40.3125C212.569 40.375 212.475 40.6094 212.287 41.0156C212.1 41.4219 211.991 41.6875 211.959 41.8125C211.834 42.0312 211.647 42.2969 211.397 42.6094C211.178 42.8906 210.944 43.1875 210.694 43.5C210.475 43.7812 210.256 44.0781 210.037 44.3906C209.85 44.7031 209.725 45 209.662 45.2812C209.475 46.0938 209.35 46.8906 209.287 47.6719C209.225 48.4219 209.069 49.2031 208.819 50.0156C208.569 50.6719 208.334 51.3281 208.116 51.9844C207.897 52.6094 207.725 53.3125 207.6 54.0938C207.537 54.5 207.491 55.0156 207.459 55.6406C207.459 56.2656 207.334 56.7969 207.084 57.2344C207.022 57.4531 206.975 57.8281 206.944 58.3594C206.912 58.8906 206.881 59.4531 206.85 60.0469C206.819 60.6406 206.787 61.2031 206.756 61.7344C206.756 62.2656 206.756 62.6406 206.756 62.8594C206.756 63.7969 206.834 64.7812 206.991 65.8125C207.178 66.8438 207.397 67.8906 207.647 68.9531C207.928 70.0156 208.225 71.0625 208.537 72.0938C208.85 73.0938 209.147 74.0312 209.428 74.9062C209.428 74.9375 209.444 75.0625 209.475 75.2812C209.537 75.5 209.6 75.75 209.662 76.0312C209.725 76.2812 209.787 76.5312 209.85 76.7812C209.912 77 209.959 77.1562 209.991 77.25C209.991 77.3438 210.069 77.5156 210.225 77.7656C210.412 78.0156 210.6 78.2969 210.787 78.6094C211.006 78.8906 211.209 79.1562 211.397 79.4062C211.584 79.625 211.709 79.75 211.772 79.7812C211.803 79.8438 211.866 79.9844 211.959 80.2031C212.084 80.3906 212.194 80.6094 212.287 80.8594C212.412 81.0781 212.522 81.2969 212.616 81.5156C212.741 81.7031 212.803 81.8281 212.803 81.8906C213.241 82.4219 213.662 82.8906 214.069 83.2969C214.475 83.7031 214.881 84.0781 215.287 84.4219C215.725 84.7656 216.162 85.1094 216.6 85.4531C217.069 85.7969 217.584 86.1875 218.147 86.625L219.037 87.5156C219.569 87.7656 220.225 88.1094 221.006 88.5469C221.819 88.9531 222.444 89.5 222.881 90.1875C224.319 90.3125 225.709 90.5469 227.053 90.8906C228.428 91.2031 229.85 91.3594 231.319 91.3594H232.256C232.694 91.3594 233.116 91.3438 233.522 91.3125C233.928 91.2812 234.381 91.1562 234.881 90.9375C234.912 90.9375 234.975 90.9219 235.069 90.8906C235.194 90.8281 235.319 90.7656 235.444 90.7031C235.569 90.6094 235.678 90.5469 235.772 90.5156C235.866 90.4531 235.928 90.4219 235.959 90.4219C236.053 90.3906 236.272 90.3281 236.616 90.2344C236.991 90.1406 237.366 90.0469 237.741 89.9531C238.147 89.8594 238.522 89.7812 238.866 89.7188C239.209 89.625 239.428 89.5625 239.522 89.5312C239.553 89.5312 239.678 89.4531 239.897 89.2969C240.147 89.1406 240.303 89.0312 240.366 88.9688C240.397 88.9375 240.475 88.875 240.6 88.7812C240.725 88.6562 240.85 88.5469 240.975 88.4531C241.131 88.3281 241.256 88.2344 241.35 88.1719C241.475 88.0781 241.537 88.0312 241.537 88.0312C241.631 88 241.787 87.9531 242.006 87.8906C242.256 87.8281 242.428 87.7969 242.522 87.7969C242.553 87.7344 242.584 87.6875 242.616 87.6562L242.756 87.5156C242.881 87.3594 243.053 87.125 243.272 86.8125C243.522 86.5 243.772 86.1875 244.022 85.875C244.272 85.5625 244.491 85.2812 244.678 85.0312C244.897 84.75 245.037 84.5781 245.1 84.5156C245.131 84.4844 245.225 84.375 245.381 84.1875C245.537 83.9688 245.694 83.75 245.85 83.5312C246.006 83.2812 246.162 83.0625 246.319 82.875C246.475 82.6562 246.569 82.5156 246.6 82.4531C246.631 82.4219 246.694 82.3594 246.787 82.2656C246.912 82.1719 247.037 82.0625 247.162 81.9375C247.287 81.8125 247.397 81.6875 247.491 81.5625C247.616 81.4375 247.678 81.3438 247.678 81.2812C247.741 81.2812 247.803 81.1562 247.866 80.9062C247.959 80.625 248.006 80.4531 248.006 80.3906C248.037 80.3281 248.116 80.1719 248.241 79.9219C248.366 79.6719 248.491 79.4062 248.616 79.125C248.741 78.8125 248.85 78.5312 248.944 78.2812C249.069 78.0312 249.147 77.875 249.178 77.8125C249.209 77.75 249.256 77.6094 249.319 77.3906C249.381 77.1406 249.444 76.8906 249.506 76.6406C249.569 76.3906 249.616 76.1562 249.647 75.9375C249.709 75.6875 249.741 75.5312 249.741 75.4688C249.803 75.3438 249.881 75.1875 249.975 75C250.069 74.7812 250.162 74.5781 250.256 74.3906C250.381 74.2031 250.522 74.0469 250.678 73.9219C250.866 73.7969 251.053 73.7344 251.241 73.7344C251.397 73.7344 251.553 73.75 251.709 73.7812C251.897 73.7812 252.037 73.8594 252.131 74.0156C252.194 74.1094 252.272 74.25 252.366 74.4375C252.459 74.625 252.553 74.8125 252.647 75C252.741 75.1875 252.819 75.3594 252.881 75.5156C252.944 75.6406 252.975 75.7188 252.975 75.75C252.975 75.8125 252.944 75.9688 252.881 76.2188C252.85 76.4688 252.803 76.75 252.741 77.0625C252.678 77.375 252.616 77.6719 252.553 77.9531C252.491 78.2031 252.444 78.3594 252.412 78.4219C252.319 78.9531 252.209 79.5781 252.084 80.2969C251.959 80.9844 251.834 81.7031 251.709 82.4531C251.616 83.2031 251.522 83.9531 251.428 84.7031C251.334 85.4219 251.272 86.0625 251.241 86.625V88.6875V89.5312C251.178 89.75 251.1 89.9375 251.006 90.0938C250.944 90.25 250.881 90.4062 250.819 90.5625C250.756 90.7188 250.694 90.8438 250.631 90.9375C250.537 91.2188 250.475 91.4062 250.444 91.5C250.444 91.5625 250.319 91.5938 250.069 91.5938C249.787 91.5938 249.553 91.4219 249.366 91.0781C249.209 90.7344 249.037 90.3594 248.85 89.9531C248.694 89.5156 248.491 89.125 248.241 88.7812C248.022 88.4375 247.709 88.2656 247.303 88.2656C246.991 88.2656 246.834 88.2812 246.834 88.3125C246.866 88.3438 246.787 88.4688 246.6 88.6875C245.319 89.75 244.006 90.7031 242.662 91.5469C241.319 92.3594 239.881 93.0312 238.35 93.5625C237.662 93.875 237.006 94.2188 236.381 94.5938C235.756 94.9688 235.069 95.2344 234.319 95.3906C233.787 95.4531 233.241 95.5156 232.678 95.5781C232.116 95.6094 231.662 95.8281 231.319 96.2344L224.569 96.8438C223.131 96.3125 221.631 95.9375 220.069 95.7188C218.506 95.4688 216.975 95.25 215.475 95.0625ZM302.419 92.0625C302.887 92.125 303.231 92.2656 303.45 92.4844C303.7 92.7031 304.028 92.9531 304.434 93.2344C304.872 93.4844 305.341 93.6406 305.841 93.7031C306.341 93.7656 306.825 93.7969 307.294 93.7969H307.997C308.403 93.7969 308.794 93.75 309.169 93.6562C309.544 93.5312 309.934 93.4688 310.341 93.4688C310.622 93.4688 310.903 93.5312 311.184 93.6562C311.466 93.75 311.731 93.7969 311.981 93.7969C313.356 93.7969 314.747 93.4062 316.153 92.625C317.591 91.8438 318.934 90.875 320.184 89.7188C321.466 88.5312 322.591 87.25 323.559 85.875C324.528 84.5 325.262 83.2344 325.762 82.0781C326.137 81.3594 326.434 80.5938 326.653 79.7812C326.872 78.9688 327.075 78.2031 327.262 77.4844C327.7 75.9844 328.153 74.4844 328.622 72.9844C329.091 71.4531 329.325 69.8906 329.325 68.2969C329.325 67.4531 329.341 66.6406 329.372 65.8594C329.403 65.0469 329.419 64.2188 329.419 63.375C329.419 62.4688 329.403 61.5781 329.372 60.7031C329.341 59.7969 329.325 58.9062 329.325 58.0312C329.262 58 329.184 57.8281 329.091 57.5156C329.028 57.2031 328.997 56.9844 328.997 56.8594V55.5C328.809 54.3125 328.512 53.2031 328.106 52.1719C327.731 51.1406 327.356 50.0781 326.981 48.9844C326.981 48.9531 326.966 48.875 326.934 48.75C326.934 48.625 326.919 48.4844 326.887 48.3281C326.856 48.1406 326.809 47.9844 326.747 47.8594C326.716 47.7031 326.684 47.6094 326.653 47.5781C326.653 47.4844 326.512 47.2812 326.231 46.9688C325.981 46.6562 325.825 46.4688 325.762 46.4062C325.731 46.3438 325.7 46.2656 325.669 46.1719C325.637 46.1094 325.606 46.0469 325.575 45.9844C325.544 45.8906 325.512 45.8125 325.481 45.75C325.45 45.6562 325.356 45.4062 325.2 45C325.044 44.5625 324.872 44.0938 324.684 43.5938C324.497 43.0938 324.309 42.6406 324.122 42.2344C323.966 41.7969 323.856 41.5312 323.794 41.4375C323.575 40.9688 323.294 40.5469 322.95 40.1719C322.606 39.7969 322.247 39.4375 321.872 39.0938C321.528 38.75 321.2 38.3906 320.887 38.0156C320.606 37.6406 320.403 37.2031 320.278 36.7031L316.716 33.2344C316.403 33.2031 316.028 33.0781 315.591 32.8594C315.184 32.6406 314.747 32.3906 314.278 32.1094C313.841 31.8281 313.403 31.5469 312.966 31.2656C312.559 30.9844 312.184 30.7813 311.841 30.6562C311.778 30.5625 311.575 30.4844 311.231 30.4219C310.919 30.3594 310.731 30.3281 310.669 30.3281C310.512 30.2656 310.294 30.1875 310.012 30.0938C309.731 29.9687 309.419 29.8438 309.075 29.7188C308.762 29.5937 308.466 29.4844 308.184 29.3906C307.934 29.2656 307.762 29.1875 307.669 29.1562C307.294 29.3438 306.903 29.4688 306.497 29.5312C306.091 29.5625 305.669 29.5937 305.231 29.625C304.825 29.625 304.403 29.6406 303.966 29.6719C303.528 29.7031 303.091 29.8125 302.653 30C300.872 30.7813 299.341 31.5938 298.059 32.4375C296.809 33.25 295.716 34.1719 294.778 35.2031C293.872 36.2344 293.059 37.4062 292.341 38.7188C291.622 40 290.903 41.5 290.184 43.2188C289.872 43.8438 289.544 44.4531 289.2 45.0469C288.856 45.6406 288.575 46.2656 288.356 46.9219C288.231 47.3281 288.091 47.8281 287.934 48.4219C287.778 49.0156 287.622 49.5938 287.466 50.1562C287.309 50.7188 287.169 51.2188 287.044 51.6562C286.95 52.0625 286.903 52.2812 286.903 52.3125V55.2188V59.2031C286.903 59.3594 286.919 59.6562 286.95 60.0938C286.981 60.5312 287.012 61 287.044 61.5C287.075 62 287.106 62.4844 287.137 62.9531C287.169 63.4219 287.184 63.75 287.184 63.9375C287.309 64.8438 287.481 65.7344 287.7 66.6094C287.95 67.4531 288.169 68.3281 288.356 69.2344C288.575 70.2344 288.731 71.2344 288.825 72.2344C288.919 73.2031 289.169 74.1719 289.575 75.1406C289.95 76.1406 290.45 77.2031 291.075 78.3281C291.731 79.4219 292.278 80.4844 292.716 81.5156C292.778 81.5781 292.841 81.7344 292.903 81.9844C292.997 82.2031 293.044 82.3281 293.044 82.3594C293.044 82.4219 293.059 82.5 293.091 82.5938C293.122 82.6562 293.153 82.7188 293.184 82.7812C293.216 82.875 293.262 82.9531 293.325 83.0156C293.387 83.0469 293.528 83.1875 293.747 83.4375C293.997 83.6875 294.153 83.8281 294.216 83.8594C294.216 83.8906 294.247 83.9688 294.309 84.0938C294.372 84.1875 294.434 84.3125 294.497 84.4688C294.591 84.5938 294.653 84.7188 294.684 84.8438C294.747 84.9688 294.778 85.0312 294.778 85.0312C294.841 85.125 294.934 85.2812 295.059 85.5C295.216 85.7188 295.325 85.8594 295.387 85.9219C295.856 86.5156 296.403 87.0781 297.028 87.6094C297.684 88.1094 298.325 88.625 298.95 89.1562C299.075 89.25 299.294 89.4375 299.606 89.7188C299.919 90 300.262 90.2969 300.637 90.6094C301.012 90.9219 301.356 91.2188 301.669 91.5C302.012 91.7812 302.262 91.9688 302.419 92.0625ZM273.731 63V62.5312C273.731 62.4375 273.747 62.2344 273.778 61.9219C273.809 61.6094 273.841 61.2656 273.872 60.8906C273.934 60.5156 273.981 60.1719 274.012 59.8594C274.044 59.5156 274.059 59.2969 274.059 59.2031V55.2188C274.059 55.1875 274.075 55.1094 274.106 54.9844C274.169 54.8281 274.216 54.6562 274.247 54.4688C274.309 54.2812 274.372 54.0938 274.434 53.9062C274.497 53.7188 274.544 53.5781 274.575 53.4844C274.575 53.3906 274.622 53.2656 274.716 53.1094L274.903 52.8281C274.997 52.6406 275.106 52.375 275.231 52.0312C275.356 51.6562 275.481 51.2812 275.606 50.9062C275.731 50.5312 275.841 50.1875 275.934 49.875C276.028 49.5625 276.075 49.375 276.075 49.3125C276.075 49.2812 276.075 49.1719 276.075 48.9844C276.106 48.7969 276.137 48.6094 276.169 48.4219C276.2 48.2344 276.231 48.0625 276.262 47.9062C276.325 47.7188 276.372 47.6094 276.403 47.5781C276.747 46.6406 277.169 45.7656 277.669 44.9531C278.169 44.1406 278.7 43.3594 279.262 42.6094C279.856 41.8594 280.481 41.125 281.137 40.4062C281.794 39.6875 282.45 38.9531 283.106 38.2031C283.919 37.2656 284.669 36.4844 285.356 35.8594C286.044 35.2031 286.872 34.5156 287.841 33.7969C288.153 33.5156 288.466 33.2031 288.778 32.8594C289.122 32.5156 289.481 32.25 289.856 32.0625C289.856 32 289.981 31.9531 290.231 31.9219C290.512 31.8594 290.684 31.8281 290.747 31.8281C291.153 31.6094 291.591 31.3281 292.059 30.9844C292.528 30.6094 292.95 30.3906 293.325 30.3281H294.544C294.575 30.2969 294.653 30.25 294.778 30.1875C294.934 30.0938 295.091 30 295.247 29.9062C295.434 29.7812 295.591 29.6875 295.716 29.625C295.841 29.5312 295.919 29.4688 295.95 29.4375C296.075 29.375 296.278 29.2813 296.559 29.1562C296.872 29 297.059 28.8906 297.122 28.8281C297.184 28.8281 297.341 28.7812 297.591 28.6875C297.841 28.5625 297.997 28.5 298.059 28.5C298.122 28.4687 298.294 28.3281 298.575 28.0781C298.887 27.7969 299.106 27.6562 299.231 27.6562C299.262 27.625 299.387 27.6094 299.606 27.6094C299.856 27.5781 300.106 27.5469 300.356 27.5156C300.637 27.4844 300.887 27.4531 301.106 27.4219C301.356 27.3906 301.528 27.3594 301.622 27.3281C302.122 27.2656 302.591 27.1094 303.028 26.8594C303.466 26.6094 303.997 26.4844 304.622 26.4844H304.762C304.825 26.4844 304.997 26.5312 305.278 26.625C305.591 26.7188 305.809 26.7656 305.934 26.7656H311.841C311.872 26.7656 311.966 26.7812 312.122 26.8125C312.278 26.8125 312.45 26.8281 312.637 26.8594C312.825 26.8906 312.997 26.9375 313.153 27C313.341 27.0313 313.481 27.0625 313.575 27.0938C315.731 27.625 317.841 28.2969 319.903 29.1094C321.997 29.9219 323.95 31.0156 325.762 32.3906C326.387 32.7656 327.012 33.125 327.637 33.4688C328.294 33.8125 328.856 34.2031 329.325 34.6406C329.419 34.7344 329.653 34.9844 330.028 35.3906C330.403 35.7656 330.809 36.1719 331.247 36.6094C331.684 37.0156 332.091 37.4219 332.466 37.8281C332.841 38.2031 333.075 38.4375 333.169 38.5312C333.356 38.7188 333.512 38.8438 333.637 38.9062C333.762 38.9688 333.872 39.0156 333.966 39.0469C334.091 39.0781 334.2 39.1406 334.294 39.2344C334.387 39.3281 334.512 39.4844 334.669 39.7031C334.7 39.7656 334.778 39.9062 334.903 40.125C335.059 40.3438 335.216 40.5781 335.372 40.8281C335.528 41.0781 335.669 41.3281 335.794 41.5781C335.95 41.7969 336.059 41.9531 336.122 42.0469C336.622 42.9219 337.153 43.7812 337.716 44.625C338.309 45.4688 338.825 46.3438 339.262 47.25C339.731 48.125 340.075 49.0312 340.294 49.9688C340.544 50.875 340.794 51.8281 341.044 52.8281C341.137 53.1719 341.294 53.6562 341.512 54.2812C341.731 54.9062 341.872 55.4219 341.934 55.8281C342.028 56.5156 342.091 57.1406 342.122 57.7031C342.153 58.2344 342.184 58.7656 342.216 59.2969C342.247 59.7969 342.262 60.3281 342.262 60.8906C342.262 61.4219 342.262 62.0156 342.262 62.6719C342.262 65.5156 341.872 68.1875 341.091 70.6875C340.341 73.1562 339.262 75.6094 337.856 78.0469C336.856 79.7344 335.669 81.2969 334.294 82.7344C332.919 84.1719 331.559 85.625 330.216 87.0938C330.153 87.1562 330.044 87.3125 329.887 87.5625C329.762 87.7812 329.684 87.9219 329.653 87.9844C329.622 88.0156 329.512 88.0781 329.325 88.1719C329.169 88.2656 328.981 88.3594 328.762 88.4531C328.575 88.5469 328.387 88.6406 328.2 88.7344C328.012 88.8281 327.887 88.8906 327.825 88.9219C327.794 88.9219 327.716 88.9688 327.591 89.0625C327.466 89.1562 327.325 89.2656 327.169 89.3906C327.012 89.5156 326.856 89.6406 326.7 89.7656C326.575 89.8906 326.481 90 326.419 90.0938C326.387 90.125 326.278 90.2344 326.091 90.4219C325.934 90.5781 325.762 90.75 325.575 90.9375C325.387 91.125 325.2 91.3125 325.012 91.5C324.856 91.6562 324.747 91.7344 324.684 91.7344C324.653 91.7656 324.528 91.8438 324.309 91.9688C324.122 92.0938 323.887 92.2344 323.606 92.3906C323.325 92.5469 323.044 92.7031 322.762 92.8594C322.481 93.0156 322.262 93.1406 322.106 93.2344C322.012 93.2969 321.887 93.3594 321.731 93.4219C321.606 93.4531 321.512 93.4688 321.45 93.4688C321.169 93.625 320.809 93.7969 320.372 93.9844C319.934 94.1719 319.497 94.3594 319.059 94.5469C318.622 94.7344 318.231 94.9062 317.887 95.0625C317.575 95.1875 317.403 95.2656 317.372 95.2969C317.091 95.4219 316.7 95.5781 316.2 95.7656C315.731 95.9219 315.262 96.0781 314.794 96.2344C314.325 96.3906 313.919 96.5156 313.575 96.6094C313.231 96.7344 313.044 96.7969 313.012 96.7969H303.591C303.372 96.7656 303.169 96.7188 302.981 96.6562C302.825 96.625 302.653 96.5938 302.466 96.5625C302.309 96.5312 302.2 96.5 302.137 96.4688C302.106 96.4688 301.966 96.4062 301.716 96.2812C301.497 96.1875 301.356 96.1406 301.294 96.1406C301.2 96.1406 301.012 96.1094 300.731 96.0469C300.45 95.9844 300.137 95.9375 299.794 95.9062C299.45 95.8438 299.137 95.7812 298.856 95.7188C298.575 95.6562 298.387 95.625 298.294 95.625C298.262 95.5938 298.153 95.5312 297.966 95.4375C297.778 95.3438 297.575 95.25 297.356 95.1562C297.137 95.0625 296.919 94.9688 296.7 94.875C296.481 94.7812 296.325 94.7031 296.231 94.6406C295.169 94.1406 294.091 93.6406 292.997 93.1406C291.934 92.6406 290.887 92.0781 289.856 91.4531C289.044 90.9844 288.2 90.4219 287.325 89.7656C286.481 89.0781 285.637 88.3594 284.794 87.6094C283.981 86.8594 283.2 86.0938 282.45 85.3125C281.7 84.5 281.028 83.7344 280.434 83.0156C280.091 82.5469 279.809 82.0781 279.591 81.6094C279.372 81.1094 279.169 80.625 278.981 80.1562C278.794 79.6562 278.606 79.1562 278.419 78.6562C278.262 78.1562 278.059 77.6562 277.809 77.1562C277.778 77.125 277.684 77.0312 277.528 76.875C277.372 76.7188 277.294 76.6094 277.294 76.5469C276.887 75.7656 276.466 74.7812 276.028 73.5938C275.622 72.375 275.247 71.125 274.903 69.8438C274.559 68.5625 274.278 67.3125 274.059 66.0938C273.841 64.875 273.731 63.8438 273.731 63ZM367.8 53.5312C367.8 53.4375 367.8 53.2812 367.8 53.0625C367.831 52.8438 367.847 52.6094 367.847 52.3594C367.878 52.1094 367.909 51.875 367.941 51.6562C367.972 51.4375 368.003 51.2812 368.034 51.1875V39.75C368.034 39.6562 368.05 39.4062 368.081 39C368.113 38.5625 368.144 38.0938 368.175 37.5938C368.238 37.0938 368.284 36.6406 368.316 36.2344C368.347 35.7969 368.363 35.5312 368.363 35.4375V35.0625C368.363 34.5938 368.284 34.0156 368.128 33.3281C367.972 32.6406 367.863 32.0781 367.8 31.6406C367.675 31.3906 367.425 31.2344 367.05 31.1719C366.675 31.0781 366.316 31.0312 365.972 31.0312H365.597C365.253 31.0312 364.909 31.0937 364.566 31.2188C364.253 31.3125 363.909 31.3594 363.534 31.3594C363.159 31.3594 362.738 31.3125 362.269 31.2188C361.8 31.0937 361.363 30.9375 360.956 30.75C360.581 30.5312 360.253 30.25 359.972 29.9062C359.722 29.5625 359.597 29.1562 359.597 28.6875C359.597 28.3438 359.706 28.0781 359.925 27.8906C360.175 27.6719 360.472 27.5156 360.816 27.4219C361.159 27.3281 361.503 27.2656 361.847 27.2344C362.222 27.2031 362.55 27.1875 362.831 27.1875H363.159C363.253 27.2188 363.441 27.25 363.722 27.2812C364.034 27.3125 364.363 27.3437 364.706 27.375C365.081 27.4063 365.409 27.4375 365.691 27.4688C366.003 27.4688 366.206 27.4688 366.3 27.4688C366.331 27.4688 366.441 27.4531 366.628 27.4219C366.816 27.3906 367.003 27.3594 367.191 27.3281C367.378 27.2969 367.55 27.2656 367.706 27.2344C367.894 27.2031 368.003 27.1875 368.034 27.1875H370.003C370.941 27.1875 371.878 27.25 372.816 27.375C373.784 27.5 374.769 27.5625 375.769 27.5625C375.863 27.5625 375.972 27.5625 376.097 27.5625C376.253 27.5625 376.409 27.5469 376.566 27.5156C376.722 27.5156 376.894 27.5 377.081 27.4688L378.3 26.9531C378.55 26.9844 378.941 27 379.472 27C380.034 27 380.628 27 381.253 27C381.878 27 382.456 27 382.988 27C383.55 27 383.956 26.9844 384.206 26.9531C384.238 26.9531 384.331 26.9375 384.488 26.9062C384.644 26.875 384.816 26.8438 385.003 26.8125C385.191 26.7812 385.378 26.75 385.566 26.7188C385.753 26.6875 385.894 26.6563 385.988 26.625L386.784 26.2969C387.534 26.4219 388.175 26.6719 388.706 27.0469C389.269 27.3906 389.55 27.9531 389.55 28.7344C389.55 29.0781 389.409 29.375 389.128 29.625C388.878 29.875 388.566 30.0781 388.191 30.2344C387.847 30.3906 387.472 30.5156 387.066 30.6094C386.691 30.6719 386.363 30.7031 386.081 30.7031H385.988C385.956 30.7031 385.816 30.6719 385.566 30.6094C385.316 30.5156 385.175 30.4688 385.144 30.4688C385.081 30.4688 384.925 30.4531 384.675 30.4219C384.425 30.3906 384.144 30.3594 383.831 30.3281C383.55 30.2969 383.238 30.2656 382.894 30.2344C382.581 30.2031 382.331 30.1875 382.144 30.1875H382.003C381.253 30.1875 380.597 30.2812 380.034 30.4688C379.503 30.6562 379.019 31.0469 378.581 31.6406V38.5312C378.581 42.4062 378.659 46.2344 378.816 50.0156C378.972 53.7969 379.113 57.5938 379.238 61.4062V64.7344C379.238 65.2031 379.253 65.8438 379.284 66.6562C379.316 67.4375 379.347 68.2344 379.378 69.0469C379.409 69.8594 379.425 70.5781 379.425 71.2031C379.456 71.8281 379.472 72.1875 379.472 72.2812C379.472 72.3438 379.488 72.4844 379.519 72.7031C379.581 72.8906 379.644 73.125 379.706 73.4062C379.769 73.6875 379.831 73.9688 379.894 74.25C379.956 74.5312 380.019 74.7656 380.081 74.9531C380.3 75.7656 380.534 76.5625 380.784 77.3438C381.034 78.125 381.3 78.9062 381.581 79.6875C381.581 79.75 381.613 79.9219 381.675 80.2031C381.769 80.4844 381.816 80.6562 381.816 80.7188C381.816 80.7812 381.847 80.9062 381.909 81.0938C382.003 81.2812 382.081 81.375 382.144 81.375C382.581 81.9688 382.956 82.6094 383.269 83.2969C383.613 83.9844 384.019 84.625 384.488 85.2188C384.519 85.25 384.566 85.2812 384.628 85.3125C384.659 85.3438 384.691 85.375 384.722 85.4062C384.753 85.4062 384.784 85.4219 384.816 85.4531C384.941 85.6094 385.128 85.7969 385.378 86.0156C385.628 86.2344 385.863 86.4531 386.081 86.6719C386.331 86.8906 386.55 87.0938 386.738 87.2812C386.925 87.4375 387.05 87.5312 387.113 87.5625C387.831 88.125 388.644 88.6094 389.55 89.0156C390.456 89.3906 391.378 89.7188 392.316 90C393.284 90.2812 394.238 90.5156 395.175 90.7031C396.144 90.8906 397.05 91.0781 397.894 91.2656C397.925 91.2656 397.941 91.2812 397.941 91.3125C397.972 91.3125 398.019 91.3125 398.081 91.3125C398.113 91.3438 398.159 91.3594 398.222 91.3594H398.269C398.3 91.3594 398.331 91.3438 398.363 91.3125C398.394 91.3125 398.441 91.2969 398.503 91.2656C398.847 91.2344 399.206 91.2031 399.581 91.1719C399.956 91.1406 400.331 91.125 400.706 91.125C401.269 91.125 401.816 91.1406 402.347 91.1719C402.878 91.2031 403.409 91.2188 403.941 91.2188C404.566 91.2188 405.191 91.1875 405.816 91.125C406.441 91.0625 407.05 90.9219 407.644 90.7031C407.675 90.7031 407.738 90.6719 407.831 90.6094C407.925 90.5156 408.034 90.4219 408.159 90.3281C408.284 90.2344 408.394 90.1562 408.488 90.0938C408.613 90 408.706 89.9531 408.769 89.9531C408.8 89.9219 408.878 89.875 409.003 89.8125C409.128 89.7188 409.269 89.6406 409.425 89.5781C409.581 89.5156 409.722 89.4688 409.847 89.4375C410.003 89.375 410.113 89.3281 410.175 89.2969C410.581 89.1406 410.878 89.0781 411.066 89.1094C411.253 89.1094 411.456 88.9844 411.675 88.7344C412.019 88.2344 412.472 87.6562 413.034 87C413.597 86.3438 414.034 85.75 414.347 85.2188C415.566 82.875 416.55 80.5781 417.3 78.3281C418.05 76.0781 418.425 73.6406 418.425 71.0156V68.8125C418.394 68.75 418.347 68.6094 418.284 68.3906C418.222 68.1719 418.191 68.0312 418.191 67.9688L418.05 67.7344L418.191 67.6406C418.409 66.7656 418.534 65.8906 418.566 65.0156C418.628 64.1406 418.691 63.2656 418.753 62.3906C418.753 62.2969 418.784 62.0938 418.847 61.7812C418.941 61.4375 418.988 61.2344 418.988 61.1719C419.05 61.1719 419.081 61.125 419.081 61.0312C419.081 60.9375 419.081 60.8594 419.081 60.7969C419.081 60.4531 419.003 60.1562 418.847 59.9062C418.722 59.625 418.659 59.3125 418.659 58.9688C418.659 58.7812 418.675 58.6094 418.706 58.4531C418.738 58.2969 418.831 58.1562 418.988 58.0312V38.9062C418.831 38.7812 418.738 38.5 418.706 38.0625C418.675 37.625 418.644 37.1406 418.613 36.6094C418.613 36.0781 418.597 35.5469 418.566 35.0156C418.566 34.4844 418.519 34.0469 418.425 33.7031C418.394 33.5781 418.269 33.2969 418.05 32.8594C417.863 32.4219 417.706 32.0938 417.581 31.875C417.488 31.7812 417.081 31.6094 416.363 31.3594C415.644 31.1094 414.863 30.8438 414.019 30.5625C413.175 30.2812 412.394 30.0469 411.675 29.8594C410.956 29.6406 410.566 29.5312 410.503 29.5312H410.081H409.472C409.128 29.5312 408.738 29.5156 408.3 29.4844C407.894 29.4531 407.503 29.3906 407.128 29.2969C406.784 29.1719 406.488 29 406.238 28.7812C405.988 28.5313 405.863 28.2031 405.863 27.7969C405.863 27.4844 406.003 27.1094 406.284 26.6719C406.566 26.2031 406.863 25.9688 407.175 25.9688H407.316C407.347 26.0312 407.441 26.0781 407.597 26.1094C407.784 26.1406 407.972 26.1719 408.159 26.2031C408.347 26.2344 408.519 26.2656 408.675 26.2969C408.863 26.2969 408.972 26.2969 409.003 26.2969H410.55H414.347C414.378 26.3281 414.472 26.3594 414.628 26.3906C414.816 26.4219 415.003 26.4531 415.191 26.4844C415.409 26.5156 415.597 26.5469 415.753 26.5781C415.941 26.6094 416.05 26.625 416.081 26.625H416.222H416.409C416.472 26.625 416.613 26.6094 416.831 26.5781C417.05 26.5469 417.284 26.5156 417.534 26.4844C417.784 26.4531 418.019 26.4219 418.238 26.3906C418.488 26.3594 418.659 26.3281 418.753 26.2969H419.081H419.222C419.347 26.3594 419.519 26.4375 419.738 26.5312C419.956 26.5937 420.097 26.625 420.159 26.625C420.253 26.6563 420.425 26.6875 420.675 26.7188C420.925 26.7188 421.191 26.7188 421.472 26.7188C421.753 26.7188 422.019 26.7188 422.269 26.7188C422.519 26.7188 422.691 26.7188 422.784 26.7188C424.066 26.7188 425.238 26.6406 426.3 26.4844C427.394 26.2969 428.55 26.125 429.769 25.9688C430.05 26.25 430.394 26.3906 430.8 26.3906C431.019 26.3906 431.206 26.375 431.363 26.3438C431.519 26.3125 431.675 26.2969 431.831 26.2969C431.925 26.3281 432.081 26.3594 432.3 26.3906C432.55 26.4219 432.8 26.4531 433.05 26.4844C433.3 26.5156 433.534 26.5469 433.753 26.5781C433.972 26.6094 434.113 26.625 434.175 26.625C434.519 26.7812 434.706 26.9375 434.738 27.0938C434.8 27.25 434.831 27.4531 434.831 27.7031C434.831 28.2344 434.644 28.6406 434.269 28.9219C433.894 29.1719 433.441 29.3594 432.909 29.4844C432.409 29.5781 431.894 29.6406 431.363 29.6719C430.831 29.7031 430.409 29.7656 430.097 29.8594C428.941 30.1094 427.972 30.4531 427.191 30.8906C426.409 31.3281 425.722 32.0625 425.128 33.0938C425.066 33.1562 425.003 33.3125 424.941 33.5625C424.909 33.7812 424.894 33.9375 424.894 34.0312V46.3125C424.863 46.3438 424.816 46.4531 424.753 46.6406C424.722 46.7969 424.691 46.9688 424.659 47.1562C424.628 47.3438 424.597 47.5156 424.566 47.6719C424.566 47.8281 424.566 47.9219 424.566 47.9531V50.9531C424.566 50.9844 424.55 51.0781 424.519 51.2344C424.488 51.3906 424.456 51.5469 424.425 51.7031C424.394 51.8594 424.363 52.0156 424.331 52.1719C424.3 52.2969 424.284 52.3594 424.284 52.3594V53.1562V54.1875C424.284 54.2812 424.3 54.5469 424.331 54.9844C424.363 55.3906 424.394 55.8438 424.425 56.3438C424.456 56.8438 424.488 57.3125 424.519 57.75C424.55 58.1562 424.566 58.4062 424.566 58.5V58.6875V58.8281C424.566 58.8594 424.55 58.9531 424.519 59.1094C424.488 59.2656 424.456 59.4219 424.425 59.5781C424.394 59.7344 424.363 59.8906 424.331 60.0469C424.3 60.1719 424.284 60.2344 424.284 60.2344C424.284 60.3906 424.269 60.7344 424.238 61.2656C424.206 61.7656 424.159 62.3125 424.097 62.9062C424.066 63.5 424.034 64.0781 424.003 64.6406C423.972 65.2031 423.956 65.625 423.956 65.9062V68.5312C423.956 68.5625 423.925 68.6562 423.863 68.8125C423.831 68.9375 423.784 69.0938 423.722 69.2812C423.659 69.4375 423.597 69.5781 423.534 69.7031C423.472 69.8281 423.425 69.9062 423.394 69.9375C423.394 69.9688 423.363 70.0469 423.3 70.1719C423.269 70.2969 423.238 70.4219 423.206 70.5469C423.175 70.6719 423.144 70.7969 423.113 70.9219C423.081 71.0156 423.066 71.0781 423.066 71.1094C423.066 71.2031 423.05 71.4219 423.019 71.7656C423.019 72.0781 423.003 72.4219 422.972 72.7969C422.941 73.1406 422.909 73.4688 422.878 73.7812C422.847 74.0625 422.816 74.25 422.784 74.3438C422.784 74.4062 422.738 74.5625 422.644 74.8125C422.581 75.0312 422.55 75.1562 422.55 75.1875C422.488 75.3438 422.394 75.6562 422.269 76.125C422.175 76.5625 422.066 77.0469 421.941 77.5781C421.816 78.1094 421.691 78.6094 421.566 79.0781C421.472 79.5156 421.409 79.7812 421.378 79.875C421.097 80.9062 420.706 81.9062 420.206 82.875C419.706 83.8438 419.128 84.7656 418.472 85.6406C417.847 86.5156 417.175 87.3594 416.456 88.1719C415.738 88.9844 415.034 89.75 414.347 90.4688C414.284 90.4688 414.144 90.5469 413.925 90.7031C413.706 90.8594 413.566 90.9375 413.503 90.9375C413.409 91.0312 413.238 91.1094 412.988 91.1719C412.769 91.2344 412.613 91.2656 412.519 91.2656C412.488 91.3281 412.394 91.4531 412.238 91.6406C412.113 91.8281 412.034 91.9219 412.003 91.9219C411.191 92.6094 410.3 93.1719 409.331 93.6094C408.394 94.0469 407.409 94.4219 406.378 94.7344C405.378 95.0156 404.347 95.25 403.284 95.4375C402.253 95.625 401.238 95.8125 400.238 96H393.956C393.206 96 392.472 96.0156 391.753 96.0469C391.066 96.0781 390.378 96.0938 389.691 96.0938C388.909 96.0938 388.113 96.0625 387.3 96C386.519 95.9375 385.691 95.8281 384.816 95.6719C383.784 95.5469 382.816 95.1875 381.909 94.5938C381.003 94 380.113 93.5 379.238 93.0938C378.863 92.9375 378.55 92.8281 378.3 92.7656C378.05 92.6719 377.816 92.5938 377.597 92.5312C377.378 92.4688 377.159 92.375 376.941 92.25C376.753 92.0938 376.519 91.875 376.238 91.5938C376.206 91.5625 376.144 91.4844 376.05 91.3594C375.988 91.2344 375.909 91.0938 375.816 90.9375C375.753 90.75 375.675 90.5938 375.581 90.4688C375.519 90.3125 375.472 90.2188 375.441 90.1875C375.409 90.1562 375.347 90.1094 375.253 90.0469C375.159 89.9844 375.066 89.9219 374.972 89.8594C374.847 89.7656 374.722 89.6875 374.597 89.625C373.097 88.2812 371.956 86.6875 371.175 84.8438C370.394 83 369.816 81.0625 369.441 79.0312C369.097 77 368.863 74.9531 368.738 72.8906C368.644 70.7969 368.519 68.8594 368.363 67.0781C368.363 67.0156 368.347 66.8906 368.316 66.7031C368.284 66.4844 368.238 66.2656 368.175 66.0469C368.144 65.7969 368.113 65.5781 368.081 65.3906C368.05 65.1719 368.034 65.0312 368.034 64.9688V57.4219C368.034 57.3281 368.019 57.0938 367.988 56.7188C367.956 56.3125 367.925 55.9062 367.894 55.5C367.894 55.0625 367.878 54.6562 367.847 54.2812C367.816 53.875 367.8 53.625 367.8 53.5312ZM481.931 96H479.4C479.369 96 479.119 96.0312 478.65 96.0938C478.212 96.1875 477.884 96.2656 477.666 96.3281C477.634 96.3281 477.494 96.375 477.244 96.4688C476.994 96.5625 476.853 96.6094 476.822 96.6094C476.728 96.5781 476.634 96.5312 476.541 96.4688C476.478 96.4375 476.4 96.4062 476.306 96.375C476.244 96.3438 476.197 96.3281 476.166 96.3281H475.228C474.822 96.3281 474.447 96.3281 474.103 96.3281C473.791 96.3594 473.431 96.4531 473.025 96.6094H466.556C466.431 96.6094 466.291 96.5312 466.134 96.375C466.009 96.25 465.884 96.0938 465.759 95.9062C465.666 95.7188 465.572 95.5312 465.478 95.3438C465.416 95.125 465.384 94.9531 465.384 94.8281C465.384 94.2656 465.572 93.7812 465.947 93.375C466.353 92.9688 466.853 92.7656 467.447 92.7656H473.916C474.447 92.7656 475.025 92.6406 475.65 92.3906C476.275 92.1406 476.666 91.7188 476.822 91.125C476.822 90.9375 476.837 90.6562 476.869 90.2812C476.9 89.875 476.931 89.4531 476.962 89.0156C476.994 88.5781 477.009 88.1719 477.009 87.7969C477.041 87.3906 477.056 87.1094 477.056 86.9531V86.0625V85.2188C477.056 85.0312 477.041 84.5938 477.009 83.9062C477.009 83.2188 476.994 82.4844 476.962 81.7031C476.931 80.9219 476.9 80.1875 476.869 79.5C476.837 78.8125 476.822 78.375 476.822 78.1875V64.7344C476.822 64.6719 476.806 64.5781 476.775 64.4531C476.744 64.2969 476.712 64.1406 476.681 63.9844C476.65 63.7969 476.619 63.6406 476.587 63.5156C476.556 63.3594 476.525 63.2656 476.494 63.2344V59.625V58.2188C476.369 54.0938 476.212 50.0156 476.025 45.9844C475.869 41.9219 475.822 37.7969 475.884 33.6094L475.416 32.5312C475.384 32.5 475.291 32.4688 475.134 32.4375C474.978 32.4062 474.791 32.375 474.572 32.3438C474.353 32.3125 474.119 32.2812 473.869 32.25C473.65 32.2188 473.478 32.2031 473.353 32.2031C473.166 32.2031 472.853 32.1875 472.416 32.1562C471.978 32.0938 471.494 32.0469 470.962 32.0156C470.462 31.9844 469.994 31.9531 469.556 31.9219C469.119 31.8906 468.806 31.875 468.619 31.875C468.556 31.9688 468.416 32.0469 468.197 32.1094C467.978 32.1719 467.837 32.2031 467.775 32.2031C467.712 32.2031 467.572 32.1875 467.353 32.1562C467.166 32.125 466.947 32.0938 466.697 32.0625C466.447 32 466.212 31.9531 465.994 31.9219C465.806 31.8906 465.681 31.875 465.619 31.875C465.587 31.875 465.4 31.9219 465.056 32.0156C464.712 32.1094 464.462 32.1719 464.306 32.2031C463.15 32.4531 461.994 32.6094 460.837 32.6719C459.712 32.7031 458.603 32.9219 457.509 33.3281C457.447 33.3594 457.337 33.4531 457.181 33.6094C457.025 33.7656 456.931 33.8438 456.9 33.8438C456.837 33.9375 456.634 34.0156 456.291 34.0781C455.947 34.1406 455.759 34.1719 455.728 34.1719C455.103 34.4219 454.634 34.7969 454.322 35.2969C454.009 35.7969 453.681 36.3125 453.337 36.8438C453.337 36.875 453.291 36.9531 453.197 37.0781C453.134 37.2031 453.041 37.3438 452.916 37.5C452.822 37.625 452.728 37.75 452.634 37.875C452.572 37.9688 452.541 38.0312 452.541 38.0625C452.291 38.4375 452.009 38.9219 451.697 39.5156C451.416 40.1094 451.087 40.6875 450.712 41.25C450.337 41.8125 449.931 42.2969 449.494 42.7031C449.087 43.1094 448.634 43.3125 448.134 43.3125C447.853 43.3125 447.634 43.2344 447.478 43.0781C447.322 42.8906 447.197 42.6719 447.103 42.4219C447.041 42.1719 446.994 41.9219 446.962 41.6719C446.962 41.3906 446.962 41.1562 446.962 40.9688C446.962 40.0938 447.134 39.3125 447.478 38.625C447.853 37.9062 448.181 37.1094 448.462 36.2344C448.494 36.1406 448.541 35.8906 448.603 35.4844C448.697 35.0781 448.791 34.6562 448.884 34.2188C448.978 33.7812 449.072 33.3594 449.166 32.9531C449.259 32.5469 449.306 32.2969 449.306 32.2031C449.306 32.1719 449.353 32.0312 449.447 31.7812C449.572 31.5313 449.634 31.3906 449.634 31.3594C449.634 31.2656 449.65 31.0312 449.681 30.6562C449.744 30.25 449.806 29.8438 449.869 29.4375C449.931 29 449.994 28.5938 450.056 28.2188C450.119 27.8125 450.166 27.5625 450.197 27.4688C450.259 27.1562 450.322 26.7656 450.384 26.2969C450.478 25.8281 450.603 25.375 450.759 24.9375C450.916 24.5 451.134 24.1406 451.416 23.8594C451.728 23.5469 452.134 23.3906 452.634 23.3906H452.775L453.009 23.625C453.072 23.7188 453.181 23.8906 453.337 24.1406C453.494 24.3594 453.65 24.6094 453.806 24.8906C453.994 25.1406 454.15 25.375 454.275 25.5938C454.431 25.8125 454.509 25.9375 454.509 25.9688C454.634 26.125 454.869 26.375 455.212 26.7188C455.587 27.0625 455.853 27.3125 456.009 27.4688C456.291 27.7187 456.619 27.9062 456.994 28.0312C457.4 28.1563 457.806 28.2344 458.212 28.2656C458.65 28.2969 459.087 28.3125 459.525 28.3125C459.962 28.3125 460.369 28.3281 460.744 28.3594C460.869 28.3594 461.103 28.375 461.447 28.4062C461.822 28.4375 462.212 28.4687 462.619 28.5C463.025 28.5313 463.4 28.5625 463.744 28.5938C464.087 28.625 464.322 28.6562 464.447 28.6875H493.181C494.087 28.8125 495.087 28.9063 496.181 28.9688C497.306 29.0312 498.384 29.0625 499.416 29.0625C499.884 29.0625 500.337 29.0469 500.775 29.0156C501.212 28.9844 501.619 28.9688 501.994 28.9688C502.056 28.9688 502.15 29.0312 502.275 29.1562C502.4 29.25 502.494 29.2969 502.556 29.2969H502.791H502.884C502.947 29.2969 503.134 29.25 503.447 29.1562C503.791 29.0312 503.994 28.9688 504.056 28.9688H504.619C504.962 28.9688 505.291 28.9844 505.603 29.0156C505.916 29.0469 506.244 29.0625 506.587 29.0625C506.9 29.0625 507.212 29.0469 507.525 29.0156C507.837 28.9531 508.15 28.8437 508.462 28.6875C508.587 28.625 508.744 28.5313 508.931 28.4062C509.15 28.2812 509.291 28.1875 509.353 28.125C509.447 27.9375 509.556 27.6406 509.681 27.2344C509.806 26.7969 509.962 26.375 510.15 25.9688C510.369 25.5625 510.619 25.2188 510.9 24.9375C511.181 24.625 511.525 24.5 511.931 24.5625C511.962 24.5938 512.041 24.6406 512.166 24.7031C512.291 24.7344 512.416 24.7813 512.541 24.8438C512.697 24.9062 512.822 24.9688 512.916 25.0312C513.041 25.0625 513.103 25.0937 513.103 25.125C513.197 26.875 513.4 28.6094 513.712 30.3281C514.025 32.0156 514.322 33.6875 514.603 35.3438C514.666 35.9062 514.775 36.4219 514.931 36.8906C515.119 37.3281 515.306 37.7812 515.494 38.25C515.681 38.6875 515.837 39.1562 515.962 39.6562C516.119 40.125 516.197 40.6562 516.197 41.25C516.197 41.3125 516.181 41.4375 516.15 41.625C516.15 41.7812 516.134 41.9531 516.103 42.1406C516.072 42.3281 516.041 42.5156 516.009 42.7031C516.009 42.8594 516.009 42.9844 516.009 43.0781C515.947 43.6719 515.556 43.9688 514.837 43.9688C514.681 43.9688 514.525 43.9062 514.369 43.7812C514.244 43.6562 514.103 43.5156 513.947 43.3594C513.822 43.1719 513.712 43 513.619 42.8438C513.525 42.6562 513.462 42.5312 513.431 42.4688C513.4 42.4375 513.353 42.3438 513.291 42.1875C513.228 42.0312 513.166 41.875 513.103 41.7188C513.041 41.5312 512.978 41.375 512.916 41.25C512.853 41.0938 512.822 41 512.822 40.9688C512.822 40.9062 512.775 40.7969 512.681 40.6406C512.619 40.4844 512.556 40.4062 512.494 40.4062C512.15 39.8438 511.791 39.2656 511.416 38.6719C511.072 38.0781 510.697 37.4844 510.291 36.8906C509.916 36.2969 509.509 35.75 509.072 35.25C508.634 34.7188 508.15 34.25 507.619 33.8438C506.931 33.4062 506.197 33.0781 505.416 32.8594C504.634 32.6406 503.837 32.4844 503.025 32.3906C502.212 32.2969 501.4 32.25 500.587 32.25C499.775 32.25 498.994 32.2344 498.244 32.2031C498.15 32.2031 497.978 32.1875 497.728 32.1562C497.509 32.0938 497.259 32.0469 496.978 32.0156C496.728 31.9844 496.494 31.9531 496.275 31.9219C496.056 31.8906 495.916 31.875 495.853 31.875C495.822 31.875 495.572 31.875 495.103 31.875C494.634 31.8437 494.259 31.8281 493.978 31.8281H491.916C491.416 31.8281 490.884 31.8437 490.322 31.875C489.791 31.9063 489.275 31.9688 488.775 32.0625C488.306 32.1562 487.884 32.3125 487.509 32.5312C487.166 32.7188 486.931 32.9844 486.806 33.3281V33.7969V35.0625C486.744 35.1875 486.634 35.4062 486.478 35.7188C486.322 36 486.244 36.1719 486.244 36.2344L486.15 36.4219C486.119 36.4531 486.103 36.5 486.103 36.5625V36.6094C486.103 36.6719 486.103 36.7344 486.103 36.7969C486.103 36.8594 486.119 36.9219 486.15 36.9844C486.181 37.0781 486.212 37.1406 486.244 37.1719C486.244 37.2969 486.244 37.5156 486.244 37.8281C486.275 38.1094 486.306 38.4375 486.337 38.8125C486.369 39.1562 486.4 39.4844 486.431 39.7969C486.462 40.0781 486.478 40.2812 486.478 40.4062V60C486.634 60.4375 486.728 60.8594 486.759 61.2656C486.791 61.6719 486.806 62.0625 486.806 62.4375V63.375C486.806 64.0625 486.744 64.6875 486.619 65.25C486.494 65.7812 486.431 66.3438 486.431 66.9375C486.431 67.0625 486.431 67.2031 486.431 67.3594C486.462 67.5156 486.478 67.6094 486.478 67.6406C486.478 67.7031 486.494 67.8438 486.525 68.0625C486.556 68.2812 486.587 68.5312 486.619 68.8125C486.65 69.0625 486.681 69.2969 486.712 69.5156C486.744 69.7344 486.775 69.875 486.806 69.9375V79.4062C486.806 79.4688 486.853 79.6875 486.947 80.0625C487.072 80.4375 487.134 80.6562 487.134 80.7188C487.134 80.7812 487.072 80.9375 486.947 81.1875C486.853 81.4375 486.806 81.5938 486.806 81.6562V82.4531V84.5625C486.744 84.6875 486.666 84.9375 486.572 85.3125C486.509 85.6875 486.478 85.9375 486.478 86.0625V86.1562V86.3906C486.478 86.6719 486.494 87.0625 486.525 87.5625C486.556 88.0312 486.587 88.5 486.619 88.9688C486.65 89.4062 486.681 89.8125 486.712 90.1875C486.744 90.5312 486.775 90.7344 486.806 90.7969C486.837 91.0469 486.853 91.3125 486.853 91.5938C486.884 91.8438 486.931 92.0781 486.994 92.2969C487.087 92.5156 487.228 92.7031 487.416 92.8594C487.603 93.0156 487.869 93.0938 488.212 93.0938H494.681C495.275 93.0938 495.759 93.2969 496.134 93.7031C496.541 94.0781 496.744 94.5312 496.744 95.0625C496.744 95.7188 496.525 96.1719 496.087 96.4219C495.681 96.7031 495.166 96.8438 494.541 96.8438H493.181C493.087 96.8438 492.853 96.8125 492.478 96.75C492.103 96.7188 491.697 96.6562 491.259 96.5625C490.853 96.5 490.462 96.4375 490.087 96.375C489.744 96.3438 489.525 96.3281 489.431 96.3281H486.478C486.447 96.3281 486.337 96.3125 486.15 96.2812C485.962 96.25 485.744 96.2031 485.494 96.1406C485.275 96.1094 485.056 96.0781 484.837 96.0469C484.65 96.0156 484.525 96 484.462 96H481.931Z" fill="black"/>
<g clip-path="url(#clip0_154_21)">
<path d="M7.74067 124.916C3.49707 126.921 -0.921732 122.502 1.08367 118.259L35.7227 44.9596C37.2008 41.8317 41.3325 41.1141 43.7788 43.5603L82.439 82.221C84.885 84.667 84.168 88.799 81.04 90.277L7.74067 124.916Z" fill="black"/>
<path d="M118.259 1.08367C122.503 -0.921732 126.921 3.49707 124.916 7.74067L90.277 81.04C88.799 84.168 84.667 84.885 82.221 82.439L43.5607 43.7788C41.1144 41.3325 41.832 37.2008 44.9599 35.7227L118.259 1.08367Z" fill="#597E52"/>
<path d="M52.9099 74.2285C58.4824 79.801 67.5172 79.801 73.0897 74.2285C78.6622 68.656 78.6622 59.6212 73.0897 54.0487C67.5172 48.4762 58.4824 48.4762 52.9099 54.0487C47.3374 59.6212 47.3374 68.656 52.9099 74.2285Z" fill="white"/>
</g>
<defs>
<clipPath id="clip0_154_21">
<rect width="126" height="126" fill="white"/>
</clipPath>
</defs>
</svg>
