<svg width="396" height="126" viewBox="0 0 396 126" fill="none" xmlns="http://www.w3.org/2000/svg">
<path d="M169.296 38.592C170.96 41.728 171.344 45.696 170.448 50.496H170.352C168.112 50.88 165.712 51.136 163.152 51.264C160.592 51.328 158.192 51.04 155.952 50.4C156.336 48.672 155.984 47.232 154.896 46.08C153.808 44.928 152.496 44.192 150.96 43.872C149.424 43.552 147.92 43.712 146.448 44.352C145.04 44.992 144.208 46.208 143.952 48C143.824 48.448 143.76 48.896 143.76 49.344C143.824 49.728 143.888 50.144 143.952 50.592C144.464 52.128 145.296 53.152 146.448 53.664C147.6 54.176 148.848 54.528 150.192 54.72C153.584 55.104 156.72 56.192 159.6 57.984C162.544 59.776 164.944 62.048 166.8 64.8C167.952 66.272 168.816 67.872 169.392 69.6C169.968 71.264 170.288 72.992 170.352 74.784C170.48 76.576 170.352 78.4 169.968 80.256C169.648 82.048 169.104 83.776 168.336 85.44C167.568 87.424 166.544 89.12 165.264 90.528C163.984 91.936 162.512 93.088 160.848 93.984C159.248 94.88 157.488 95.552 155.568 96C153.712 96.384 151.792 96.544 149.808 96.48C146.992 96.416 144.176 95.936 141.36 95.04C138.608 94.08 136.144 92.768 133.968 91.104C131.792 89.44 130.064 87.424 128.784 85.056C127.504 82.624 126.96 79.872 127.152 76.8V76.512V76.224C129.392 75.904 131.856 75.84 134.544 76.032C137.232 76.16 139.664 76.192 141.84 76.128C141.968 78.176 142.768 79.712 144.24 80.736C145.776 81.76 147.376 82.272 149.04 82.272C150.768 82.208 152.24 81.632 153.456 80.544C154.736 79.456 155.184 77.792 154.8 75.552C154.608 74.016 154.032 72.8 153.072 71.904C152.112 70.944 150.96 70.176 149.616 69.6C148.336 69.024 146.928 68.608 145.392 68.352C143.856 68.032 142.416 67.744 141.072 67.488C139.792 67.232 138.608 66.816 137.52 66.24C136.432 65.664 135.44 64.992 134.544 64.224C131.6 61.408 129.68 58.304 128.784 54.912C127.952 51.52 127.92 48.224 128.688 45.024C129.456 41.824 130.896 38.912 133.008 36.288C135.184 33.664 137.808 31.712 140.88 30.432C142.416 29.792 144.112 29.376 145.968 29.184C147.824 28.928 149.68 28.864 151.536 28.992C153.456 29.056 155.312 29.312 157.104 29.76C158.96 30.208 160.656 30.784 162.192 31.488C165.264 33.088 167.632 35.456 169.296 38.592ZM202.834 42.912C201.938 43.104 201.234 43.456 200.722 43.968C200.594 44.096 200.466 44.32 200.338 44.64C200.274 44.896 200.21 45.088 200.146 45.216C200.018 45.408 199.89 46.528 199.762 48.576C199.698 50.624 199.634 53.056 199.57 55.872C199.506 58.688 199.474 61.632 199.474 64.704C199.474 67.712 199.57 70.336 199.762 72.576C199.954 74.432 200.434 76.256 201.202 78.048C202.034 79.776 203.378 80.896 205.234 81.408C206.642 81.536 207.954 81.344 209.17 80.832C210.45 80.256 211.41 79.328 212.05 78.048C212.754 76.576 213.042 75.04 212.914 73.44C212.85 71.776 212.978 70.144 213.298 68.544C214.194 68.672 215.186 68.704 216.274 68.64C217.426 68.576 218.578 68.544 219.73 68.544C220.882 68.544 222.002 68.576 223.09 68.64C224.242 68.704 225.266 68.864 226.162 69.12C227.25 72.448 227.538 75.776 227.026 79.104C226.514 82.368 225.394 85.312 223.666 87.936C221.938 90.56 219.666 92.736 216.85 94.464C214.098 96.128 210.962 96.992 207.442 97.056C205.138 97.376 202.77 97.376 200.338 97.056C197.906 96.8 195.634 96.192 193.522 95.232C191.41 94.208 189.618 92.8 188.146 91.008C186.738 89.216 185.906 86.976 185.65 84.288C185.522 81.984 185.426 79.584 185.362 77.088C185.298 74.592 185.234 71.808 185.17 68.736C185.17 65.6 185.17 62.08 185.17 58.176C185.234 54.208 185.298 49.632 185.362 44.448C185.234 43.36 185.266 42.272 185.458 41.184C185.714 40.032 186.034 38.976 186.418 38.016C186.994 36.352 187.698 34.816 188.53 33.408C189.426 32 190.482 30.752 191.698 29.664C192.402 29.152 193.17 28.736 194.002 28.416C194.834 28.032 195.698 27.712 196.594 27.456C199.538 26.496 202.45 26.112 205.33 26.304C208.21 26.496 210.898 27.168 213.394 28.32C215.954 29.408 218.258 30.88 220.306 32.736C222.354 34.592 223.986 36.736 225.202 39.168C226.418 41.536 227.154 44.128 227.41 46.944C227.666 49.76 227.282 52.64 226.258 55.584C223.89 56.096 221.554 56.288 219.25 56.16C217.01 55.968 214.674 55.648 212.242 55.2C212.05 53.984 211.922 52.608 211.858 51.072C211.858 49.536 211.698 48.128 211.378 46.848C211.058 45.504 210.45 44.416 209.554 43.584C208.722 42.752 207.378 42.368 205.522 42.432C204.69 42.56 203.794 42.72 202.834 42.912ZM276.685 33.312C278.541 34.976 279.853 36.928 280.621 39.168C281.069 40.128 281.389 41.12 281.581 42.144C281.837 43.104 282.029 44.096 282.157 45.12C282.285 46.72 282.349 48.32 282.349 49.92C282.413 51.456 282.413 53.024 282.349 54.624C282.157 58.016 282.093 61.312 282.157 64.512C282.221 67.712 282.125 70.976 281.869 74.304L281.581 77.472C281.453 79.712 281.101 81.984 280.525 84.288C279.949 86.528 279.085 88.576 277.933 90.432C276.845 91.968 275.405 93.216 273.613 94.176C271.885 95.072 270.029 95.776 268.045 96.288C266.253 96.8 264.429 97.12 262.573 97.248C260.781 97.376 258.957 97.376 257.101 97.248C255.757 97.12 254.445 96.928 253.165 96.672C251.949 96.48 250.765 96.128 249.613 95.616C248.525 95.104 247.533 94.464 246.637 93.696C245.741 92.864 245.005 91.808 244.429 90.528C243.533 88.928 242.925 87.232 242.605 85.44C242.349 83.584 242.189 81.728 242.125 79.872C241.933 74.88 241.709 69.888 241.453 64.896C241.261 59.84 241.325 54.784 241.645 49.728C241.709 46.848 242.061 43.968 242.701 41.088C243.405 38.144 244.749 35.552 246.733 33.312C247.373 32.672 248.109 32.096 248.941 31.584C251.053 30.56 253.325 29.824 255.757 29.376C258.253 28.864 260.717 28.672 263.149 28.8C265.645 28.928 268.045 29.376 270.349 30.144C272.717 30.848 274.829 31.904 276.685 33.312ZM270.349 67.2V62.592L270.157 56.064C270.157 56 270.093 55.36 269.965 54.144C269.901 52.864 269.837 51.68 269.773 50.592C269.645 48.8 269.133 47.168 268.237 45.696C267.405 44.224 266.253 43.136 264.781 42.432C263.501 41.92 262.189 41.824 260.845 42.144C259.501 42.464 258.317 43.008 257.293 43.776C255.053 45.504 253.549 47.712 252.781 50.4C252.269 52.832 251.949 55.392 251.821 58.08C251.757 60.768 251.789 63.456 251.917 66.144C252.237 68.384 252.461 70.688 252.589 73.056C252.717 75.36 253.101 77.568 253.741 79.68C254.381 80.96 255.309 81.952 256.525 82.656C257.741 83.36 259.053 83.776 260.461 83.904C261.869 83.968 263.277 83.776 264.685 83.328C266.093 82.816 267.277 82.016 268.237 80.928C268.813 80.16 269.229 79.552 269.485 79.104C269.741 78.592 269.901 78.048 269.965 77.472C270.029 76.896 270.029 76.224 269.965 75.456C269.965 74.624 270.029 73.536 270.157 72.192C270.221 70.912 270.253 69.792 270.253 68.832C270.317 67.872 270.349 67.328 270.349 67.2ZM336.723 30.912C337.939 31.04 338.931 31.328 339.699 31.776C340.083 39.968 340.211 48.256 340.083 56.64C339.955 64.96 339.443 73.248 338.547 81.504C338.035 85.728 336.435 89.312 333.747 92.256C331.059 95.2 327.411 96.896 322.803 97.344C320.115 97.6 317.331 97.472 314.451 96.96C311.571 96.512 308.947 95.68 306.579 94.464C304.275 93.184 302.323 91.52 300.723 89.472C299.187 87.36 298.355 84.832 298.227 81.888C298.227 73.44 298.323 64.928 298.515 56.352C298.707 47.776 298.739 39.264 298.611 30.816L298.515 30.72H298.611C299.571 30.72 300.627 30.688 301.779 30.624C302.995 30.56 304.211 30.528 305.427 30.528C306.643 30.528 307.827 30.592 308.979 30.72C310.131 30.784 311.187 30.944 312.147 31.2V31.296C311.443 46.784 311.731 62.496 313.011 78.432C313.459 79.968 314.259 81.088 315.411 81.792C316.627 82.496 317.875 82.816 319.155 82.752C320.435 82.688 321.619 82.24 322.707 81.408C323.795 80.576 324.499 79.424 324.819 77.952C325.139 70.272 325.299 62.464 325.299 54.528C325.363 46.592 325.491 38.912 325.683 31.488C326.515 31.424 327.571 31.328 328.851 31.2C330.195 31.008 331.539 30.88 332.883 30.816C334.227 30.752 335.507 30.784 336.723 30.912ZM373.864 28.32C380.84 28.256 387.624 28.576 394.216 29.28C394.344 31.392 394.376 33.824 394.312 36.576C394.312 39.328 394.152 41.856 393.832 44.16C392.616 43.904 391.112 43.808 389.32 43.872C387.528 43.936 385.128 44.032 382.12 44.16H381.928H381.832C381.832 44.224 381.8 44.288 381.736 44.352C381.736 44.352 381.736 44.384 381.736 44.448C381.672 44.768 381.608 45.28 381.544 45.984C381.544 46.624 381.544 47.68 381.544 49.152C381.544 50.56 381.544 52.448 381.544 54.816C381.608 57.12 381.672 60.128 381.736 63.84C381.8 67.488 381.864 71.904 381.928 77.088C381.992 82.208 382.088 88.256 382.216 95.232V95.328V95.424C381.064 95.616 379.784 95.744 378.376 95.808C377.032 95.808 375.656 95.808 374.248 95.808C372.904 95.808 371.56 95.808 370.216 95.808C368.872 95.808 367.624 95.904 366.472 96.096C366.408 95.84 366.408 94.688 366.472 92.64C366.536 90.592 366.568 87.552 366.568 83.52C366.632 79.424 366.6 74.208 366.472 67.872C366.408 61.536 366.184 53.888 365.8 44.928L365.704 44.832C364.936 44.448 363.976 44.224 362.824 44.16C361.672 44.032 360.52 43.968 359.368 43.968C358.216 43.904 357.16 43.872 356.2 43.872C355.24 43.872 354.568 43.808 354.184 43.68C354.056 43.424 353.928 42.784 353.8 41.76C353.736 40.736 353.672 39.52 353.608 38.112C353.608 36.64 353.608 35.072 353.608 33.408C353.608 31.744 353.672 30.144 353.8 28.608C353.8 28.544 353.768 28.512 353.704 28.512C353.704 28.512 353.704 28.48 353.704 28.416C360.232 28.352 366.952 28.32 373.864 28.32Z" fill="black"/>
<g clip-path="url(#clip0_153_15)">
<path d="M7.74067 124.916C3.49707 126.921 -0.921732 122.502 1.08367 118.259L35.7227 44.9596C37.2008 41.8317 41.3325 41.1141 43.7788 43.5603L82.439 82.221C84.885 84.667 84.168 88.799 81.04 90.277L7.74067 124.916Z" fill="black"/>
<path d="M118.259 1.08367C122.503 -0.921732 126.921 3.49707 124.916 7.74067L90.277 81.04C88.799 84.168 84.667 84.885 82.221 82.439L43.5607 43.7788C41.1144 41.3325 41.832 37.2008 44.9599 35.7227L118.259 1.08367Z" fill="#597E52"/>
<path d="M52.9099 74.2285C58.4824 79.801 67.5172 79.801 73.0897 74.2285C78.6622 68.656 78.6622 59.6212 73.0897 54.0487C67.5172 48.4762 58.4824 48.4762 52.9099 54.0487C47.3374 59.6212 47.3374 68.656 52.9099 74.2285Z" fill="white"/>
</g>
<defs>
<clipPath id="clip0_153_15">
<rect width="126" height="126" fill="white"/>
</clipPath>
</defs>
</svg>
