<svg width="498" height="126" viewBox="0 0 498 126" fill="none" xmlns="http://www.w3.org/2000/svg">
<path d="M173.008 52.1519C172.816 49.0799 172.08 46.1679 170.8 43.4159C169.52 40.6639 167.664 38.4239 165.232 36.6959C162.8 34.9679 159.696 34.1039 155.92 34.1039C151.952 34.1039 148.912 35.2239 146.8 37.4639C144.688 39.7039 143.632 42.3279 143.632 45.3359C143.632 48.0239 144.4 50.2959 145.936 52.1519C147.472 53.9439 149.456 55.5439 151.888 56.9519C154.384 58.2959 157.008 59.6079 159.76 60.8879C162.192 61.9759 164.624 63.1599 167.056 64.4399C169.488 65.6559 171.696 67.0639 173.68 68.6639C175.664 70.2639 177.232 72.1839 178.384 74.4239C179.6 76.5999 180.208 79.2239 180.208 82.2959C180.208 85.8159 179.312 88.9519 177.52 91.7039C175.792 94.4559 173.264 96.6319 169.936 98.2319C166.608 99.7679 162.544 100.536 157.744 100.536C154.864 100.536 151.888 100.12 148.816 99.2879C145.744 98.4559 143.024 97.2399 140.656 95.6399L141.136 99.7679H136.144L135.568 79.3199H139.312C139.632 84.9519 141.584 89.2399 145.168 92.1839C148.752 95.0639 153.072 96.5039 158.128 96.5039C160.624 96.5039 162.928 96.0559 165.04 95.1599C167.152 94.1999 168.816 92.8239 170.032 91.0319C171.312 89.2399 171.952 87.0639 171.952 84.5039C171.952 81.6239 171.184 79.2239 169.648 77.3039C168.112 75.3839 166.128 73.7199 163.696 72.3119C161.264 70.9039 158.672 69.5599 155.92 68.2799C153.488 67.1919 151.088 66.0399 148.72 64.8239C146.352 63.6079 144.176 62.2319 142.192 60.6959C140.272 59.0959 138.704 57.2079 137.488 55.0319C136.336 52.8559 135.76 50.2319 135.76 47.1599C135.76 45.4959 136.048 43.7039 136.624 41.7839C137.2 39.8639 138.192 38.0399 139.6 36.3119C141.072 34.5199 143.056 33.0799 145.552 31.9919C148.112 30.8399 151.344 30.2639 155.248 30.2639C157.68 30.2639 160.4 30.6159 163.408 31.3199C166.48 31.9599 169.328 33.2399 171.952 35.1599L171.568 31.0319H176.464V52.1519H173.008Z" fill="black"/>
<path d="M252.437 53.2079C251.797 47.1919 249.685 42.5199 246.101 39.1919C242.581 35.8639 238.037 34.1999 232.469 34.1999C229.077 34.1999 225.877 34.9359 222.869 36.4079C219.925 37.8159 217.333 39.8639 215.093 42.5519C212.853 45.2399 211.093 48.4719 209.813 52.2479C208.533 56.0239 207.893 60.2799 207.893 65.0159C207.893 71.0319 209.045 76.3439 211.349 80.9519C213.653 85.5599 216.757 89.1439 220.661 91.7039C224.565 94.2639 228.885 95.5439 233.621 95.5439C237.781 95.5439 241.877 94.6159 245.909 92.7599C249.941 90.8399 253.237 88.0879 255.797 84.5039L258.293 86.5199C255.541 90.2959 252.565 93.2079 249.365 95.2559C246.165 97.3039 242.965 98.6799 239.765 99.3839C236.629 100.152 233.749 100.536 231.125 100.536C226.325 100.536 221.909 99.6719 217.877 97.9439C213.909 96.2159 210.453 93.8159 207.509 90.7439C204.629 87.6079 202.389 83.9919 200.789 79.8959C199.253 75.7359 198.485 71.2559 198.485 66.4559C198.485 61.9119 199.157 57.4959 200.501 53.2079C201.909 48.9199 203.989 45.0479 206.741 41.5919C209.493 38.1359 212.949 35.3839 217.109 33.3359C221.333 31.2879 226.229 30.2639 231.797 30.2639C235.381 30.2639 238.773 30.7439 241.973 31.7039C245.173 32.6639 248.245 34.1359 251.189 36.1199L250.709 30.9359H255.893V53.2079H252.437Z" fill="black"/>
<path d="M309.386 100.536C303.306 100.536 298.09 99.5119 293.738 97.4639C289.386 95.4159 285.834 92.6959 283.082 89.3039C280.394 85.8479 278.41 82.0399 277.13 77.8799C275.85 73.7199 275.21 69.5599 275.21 65.3999C275.21 61.3679 275.882 57.3039 277.226 53.2079C278.57 49.0479 280.618 45.2399 283.37 41.7839C286.186 38.3279 289.674 35.5439 293.834 33.4319C298.058 31.3199 302.986 30.2639 308.618 30.2639C314.506 30.2639 319.594 31.3199 323.882 33.4319C328.17 35.5439 331.69 38.3599 334.442 41.8799C337.258 45.3359 339.338 49.1119 340.682 53.2079C342.09 57.3039 342.794 61.3679 342.794 65.3999C342.794 69.3679 342.122 73.4319 340.778 77.5919C339.434 81.6879 337.354 85.4959 334.538 89.0159C331.786 92.4719 328.33 95.2559 324.17 97.3679C320.01 99.4799 315.082 100.536 309.386 100.536ZM309.578 96.5999C313.546 96.5999 317.002 95.7679 319.946 94.1039C322.89 92.3759 325.322 90.1039 327.242 87.2879C329.226 84.4079 330.698 81.2399 331.658 77.7839C332.682 74.2639 333.194 70.7439 333.194 67.2239C333.194 63.2559 332.65 59.3199 331.562 55.4159C330.474 51.5119 328.874 47.9599 326.762 44.7599C324.65 41.5599 322.026 38.9999 318.89 37.0799C315.818 35.0959 312.298 34.1039 308.33 34.1039C304.362 34.1039 300.874 34.9679 297.866 36.6959C294.922 38.4239 292.458 40.7279 290.474 43.6079C288.554 46.4239 287.082 49.5919 286.058 53.1119C285.098 56.5679 284.618 60.0879 284.618 63.6719C284.618 67.1919 285.098 70.8719 286.058 74.7119C287.082 78.5519 288.618 82.1359 290.666 85.4639C292.714 88.7919 295.306 91.4799 298.442 93.5279C301.578 95.5759 305.29 96.5999 309.578 96.5999Z" fill="black"/>
<path d="M380.624 34.9679C378.512 34.9679 376.976 35.4159 376.016 36.3119C375.12 37.2079 374.576 38.2639 374.384 39.4799C374.192 40.6319 374.096 41.6559 374.096 42.5519V66.7439C374.096 70.3279 374.32 73.8159 374.768 77.2079C375.28 80.5359 376.208 83.5439 377.552 86.2319C378.896 88.9199 380.88 91.0639 383.504 92.6639C386.192 94.2639 389.68 95.0639 393.968 95.0639C398.576 95.0639 402.32 93.9759 405.2 91.7999C408.144 89.6239 410.288 86.6159 411.632 82.7759C413.04 78.9359 413.776 74.5199 413.84 69.5279L414.128 42.5519C414.128 41.2719 414.16 40.0559 414.224 38.9039C414.288 37.6879 414.352 36.5999 414.416 35.6399C413.264 35.7039 412.112 35.7679 410.96 35.8319C409.872 35.8959 408.752 35.9599 407.6 36.0239V31.7999H425.456V34.9679C423.024 35.0319 421.328 35.5759 420.368 36.5999C419.472 37.6239 418.96 38.9999 418.832 40.7279C418.768 42.4559 418.736 44.4719 418.736 46.7759L418.544 69.0479C418.544 73.2079 418.096 77.1759 417.2 80.9519C416.304 84.7279 414.832 88.0879 412.784 91.0319C410.8 93.9759 408.144 96.3119 404.816 98.0399C401.552 99.7039 397.52 100.536 392.72 100.536C387.6 100.536 383.28 99.8639 379.76 98.5199C376.304 97.1759 373.52 95.0959 371.408 92.2799C369.36 89.4639 367.888 85.9119 366.992 81.6239C366.096 77.3359 365.648 72.2159 365.648 66.2639V46.7759C365.648 45.1119 365.68 43.1599 365.744 40.9199C365.872 38.6159 365.968 36.8559 366.032 35.6399C364.88 35.7039 363.728 35.7679 362.576 35.8319C361.424 35.8319 360.272 35.8639 359.12 35.9279V31.7999H380.624V34.9679Z" fill="black"/>
<path d="M493.515 52.0559C493.451 48.2799 493.067 45.1439 492.363 42.6479C491.659 40.1519 490.411 38.2959 488.619 37.0799C486.891 35.7999 484.363 35.1919 481.035 35.2559H472.875L472.779 87.5759C472.779 89.3039 472.747 90.8079 472.683 92.0879C472.683 93.3039 472.619 94.3279 472.491 95.1599C473.835 95.0959 475.147 95.0319 476.427 94.9679C477.771 94.9039 479.115 94.8399 480.459 94.7759V98.9999H457.899V95.8319C460.331 95.7039 461.963 95.1279 462.795 94.1039C463.691 93.0799 464.171 91.7039 464.235 89.9759C464.363 88.1839 464.427 86.1999 464.427 84.0239L464.523 35.3519L454.635 35.4479C450.603 35.4479 447.755 36.7919 446.091 39.4799C444.427 42.1679 443.595 46.3599 443.595 52.0559H440.043L440.619 31.7999H496.587L497.163 52.0559H493.515Z" fill="black"/>
<path d="M7.74067 124.916C3.49708 126.921 -0.92166 122.502 1.08373 118.259L35.7227 44.9595C37.2008 41.8316 41.3325 41.114 43.7788 43.5603L82.4392 82.2206C84.8855 84.6669 84.1678 88.7986 81.0399 90.2768L7.74067 124.916Z" fill="black"/>
<path d="M118.259 1.08367C122.503 -0.921722 126.921 3.49702 124.916 7.74062L90.2771 81.0399C88.799 84.1678 84.6673 84.8854 82.221 82.4391L43.5606 43.7788C41.1143 41.3325 41.832 37.2007 44.9599 35.7226L118.259 1.08367Z" fill="#EEE50F"/>
<path d="M73.0897 74.2285C67.5172 79.801 58.4824 79.801 52.9099 74.2285C47.3374 68.656 47.3374 59.6211 52.9099 54.0486C58.4824 48.4761 67.5172 48.4761 73.0897 54.0486C78.6623 59.6211 78.6623 68.656 73.0897 74.2285Z" fill="white"/>
</svg>
